<?xml version="1.0" encoding="UTF-8" standalone="no"?>
<!-- Created with Inkscape (http://www.inkscape.org/) -->

<svg
   version="1.1"
   id="svg1"
   width="793.70135"
   height="1122.52"
   viewBox="0 0 793.70135 1122.52"
   xmlns="http://www.w3.org/2000/svg"
   xmlns:svg="http://www.w3.org/2000/svg">
  <defs
     id="defs1" />
  <g
     id="g1">
    <path
       id="path1"
       d="M 0,0 H 241.731"
       style="fill:none;stroke:#bfbfbf;stroke-width:0.199;stroke-linecap:butt;stroke-linejoin:miter;stroke-miterlimit:10;stroke-dasharray:none;stroke-opacity:1"
       transform="matrix(1.3333333,0,0,-1.3333333,235.05333,171.84933)" />
    <g
       id="g2"
       aria-label="d&#10;p"
       transform="matrix(1.3333333,0,0,1.3333333,260.07333,189.50933)">
      <path
         id="path2"
         d="m 6.0123828,-7.9933281 c 0.011719,-0.046875 0.035156,-0.1289063 0.035156,-0.1875 0,-0.1171875 -0.1171875,-0.1171875 -0.140625,-0.1171875 -0.011719,0 -0.5976563,0.046875 -0.65625,0.058594 -0.2109375,0.011719 -0.3867188,0.035156 -0.5976563,0.046875 -0.3046875,0.023437 -0.3867187,0.035156 -0.3867187,0.2578125 0,0.1171875 0.09375,0.1171875 0.2695312,0.1171875 0.5859375,0 0.5976563,0.1054688 0.5976563,0.2226563 0,0.070312 -0.023437,0.1757812 -0.035156,0.2109375 L 4.3600391,-4.4894219 C 4.2311328,-4.7941094 3.9147266,-5.2745781 3.2936328,-5.2745781 c -1.359375,0 -2.81249999,1.7460937 -2.81249999,3.515625 0,1.18359373 0.69140629,1.87499998 1.49999999,1.87499998 0.65625,0 1.21875,-0.515625 1.5585938,-0.90234375 0.1171875,0.703125 0.6796875,0.90234375 1.0429687,0.90234375 0.3515625,0 0.6445313,-0.2109375 0.8554688,-0.64453125 0.1875,-0.41015625 0.3632812,-1.13671873 0.3632812,-1.18359373 0,-0.058594 -0.046875,-0.1054688 -0.1171875,-0.1054688 -0.1171875,0 -0.1289062,0.058594 -0.1757812,0.234375 -0.1757813,0.71484378 -0.3984375,1.46484378 -0.890625,1.46484378 -0.3515625,0 -0.375,-0.31640625 -0.375,-0.55078125 0,-0.046875 0,-0.3046875 0.082031,-0.63281253 z m -2.4140625,6.5742187 c -0.058594,0.1992188 -0.058594,0.2226563 -0.2226562,0.44531253 -0.2695313,0.33984375 -0.796875,0.85546875 -1.359375,0.85546875 -0.4804688,0 -0.7617188,-0.4453125 -0.7617188,-1.14843748 0,-0.65625 0.375,-1.9921875 0.5976563,-2.4960938 0.4101562,-0.84375 0.9726562,-1.265625 1.4414062,-1.265625 0.7851563,0 0.9375,0.9726563 0.9375,1.0664063 0,0.011719 -0.035156,0.1757812 -0.046875,0.1992187 z m 0,0"
         style="fill:#000000;fill-opacity:1;fill-rule:nonzero;stroke:none" />
      <path
         id="path3"
         d="m 6.4928516,2.7527656 c -0.058594,0.2578125 -0.070312,0.3164063 -0.3984375,0.3164063 -0.1054688,0 -0.1992188,0 -0.1992188,0.1523437 0,0.082031 0.070312,0.1171875 0.1054688,0.1171875 0.082031,0 0.1171875,-0.023437 0.703125,-0.023437 0.5742187,0 0.7382812,0.023437 0.796875,0.023437 0.035156,0 0.1523437,0 0.1523437,-0.1523437 0,-0.1171875 -0.1171875,-0.1171875 -0.2109375,-0.1171875 -0.375,0 -0.375,-0.046875 -0.375,-0.1171875 0,-0.046875 0.140625,-0.6210938 0.375,-1.546875 0.1054688,0.1757812 0.3515625,0.46875 0.7851563,0.46875 0.984375,0 2.0039064,-1.13671877 2.0039064,-2.28515627 0,-0.79687503 -0.5156252,-1.31250003 -1.1484377,-1.31250003 -0.4804687,0 -0.8671875,0.328125 -1.0898437,0.5625 -0.1757813,-0.5625 -0.703125,-0.5625 -0.7851563,-0.5625 -0.2929687,0 -0.4921875,0.1875 -0.609375,0.4335938 -0.1875,0.35156248 -0.28125,0.76171873 -0.28125,0.78515623 0,0.0703125 0.058594,0.10546875 0.1289063,0.10546875 0.09375,0 0.1054687,-0.0351563 0.1640625,-0.234375 0.1054687,-0.41015628 0.2460937,-0.86718748 0.5742187,-0.86718748 0.1992188,0 0.2578125,0.1875 0.2578125,0.375 0,0.082031 -0.035156,0.26953123 -0.046875,0.33984373 z m 1.4648437,-3.41015622 c 0.046875,-0.140625 0.046875,-0.15234375 0.1640625,-0.3046875 0.3046875,-0.35156248 0.6445313,-0.53906248 0.9375,-0.53906248 0.3984375,0 0.5507813,0.3867187 0.5507813,0.74999998 0,0.29296875 -0.1757813,1.1484375 -0.421875,1.6171875 C 8.9889453,1.2996406 8.6022266,1.6512031 8.2272266,1.6512031 c -0.5390625,0 -0.6679688,-0.6210937 -0.6679688,-0.67968747 0,-0.0117188 0.011719,-0.10546875 0.023437,-0.12890625 z m 0,0"
         style="fill:#000000;fill-opacity:1;fill-rule:nonzero;stroke:none" />
    </g>
    <path
       id="path4"
       d="M 0,0 V 18.78"
       style="fill:none;stroke:#bfbfbf;stroke-width:0.199;stroke-linecap:butt;stroke-linejoin:miter;stroke-miterlimit:10;stroke-dasharray:none;stroke-opacity:1"
       transform="matrix(1.3333333,0,0,-1.3333333,299.68533,197.02133)" />
    <path
       id="path5"
       d="m 2.4025781,-4.8058281 h 1.1015625 c 0.2226563,0 0.3398438,0 0.3398438,-0.2109375 0,-0.140625 -0.070312,-0.140625 -0.3046875,-0.140625 H 2.4846094 l 0.4453125,-1.7460938 c 0.046875,-0.1640625 0.046875,-0.1875 0.046875,-0.2695312 0,-0.1875 -0.1523438,-0.3046875 -0.3164063,-0.3046875 -0.09375,0 -0.3632812,0.046875 -0.4570312,0.421875 l -0.46875,1.8984375 H 0.60960938 c -0.234375,0 -0.3515625,0 -0.3515625,0.234375 0,0.1171875 0.09375,0.1171875 0.31640625,0.1171875 H 1.6408594 l -0.79687502,3.1523437 c -0.09375,0.421875 -0.12890625,0.5390625 -0.12890625,0.69140628 0,0.5625 0.39843747,1.078125 1.06640627,1.078125 1.2070312,0 1.8515625,-1.74609378 1.8515625,-1.82812498 0,-0.070312 -0.046875,-0.1054688 -0.1171875,-0.1054688 -0.023437,0 -0.070312,0 -0.09375,0.046875 -0.011719,0.011719 -0.023437,0.023437 -0.1054688,0.2109375 -0.2578125,0.59765628 -0.8085937,1.44140628 -1.5,1.44140628 -0.3632812,0 -0.3867187,-0.3046875 -0.3867187,-0.5625 0,-0.0117188 0,-0.24609375 0.035156,-0.38671878 z m 0,0"
       style="fill:#000000;fill-opacity:1;fill-rule:nonzero;stroke:none"
       aria-label="t"
       transform="matrix(1.3333333,0,0,1.3333333,310.82,189.50933)" />
    <path
       id="path6"
       d="M 0,0 V 18.78"
       style="fill:none;stroke:#bfbfbf;stroke-width:0.199;stroke-linecap:butt;stroke-linejoin:miter;stroke-miterlimit:10;stroke-dasharray:none;stroke-opacity:1"
       transform="matrix(1.3333333,0,0,-1.3333333,327.59067,197.02133)" />
    <path
       id="path7"
       d="m 8.5668906,-2.9073906 c 0,-1.1132813 0,-1.4414063 -0.2695312,-1.828125 -0.3515625,-0.46875 -0.9140625,-0.5390625 -1.3125,-0.5390625 -0.9960938,0 -1.5,0.7148437 -1.6875,1.1835937 -0.1640625,-0.9140625 -0.8085938,-1.1835937 -1.5703125,-1.1835937 -1.1601563,0 -1.6054688,0.9960937 -1.7109375,1.2304687 h -0.011719 v -1.2304687 l -1.61718747,0.1289062 v 0.3515625 c 0.80859377,0 0.90234377,0.082031 0.90234377,0.6679688 v 3.24609373 c 0,0.52734375 -0.1289063,0.52734375 -0.90234377,0.52734375 v 0.3515625 c 0.3046875,-0.0234375 0.94921877,-0.0234375 1.28906247,-0.0234375 0.3398438,0 0.984375,0 1.3007813,0.0234375 v -0.3515625 c -0.7617188,0 -0.9140625,0 -0.9140625,-0.52734375 V -3.1066094 c 0,-1.2539062 0.8320312,-1.921875 1.5703125,-1.921875 0.7382812,0 0.9140625,0.609375 0.9140625,1.3359375 v 2.81250003 c 0,0.52734375 -0.140625,0.52734375 -0.9140625,0.52734375 v 0.3515625 c 0.3164062,-0.0234375 0.9609375,-0.0234375 1.2890625,-0.0234375 0.3515625,0 0.9960937,0 1.3007812,0.0234375 v -0.3515625 c -0.7617187,0 -0.9023437,0 -0.9023437,-0.52734375 V -3.1066094 c 0,-1.2539062 0.8203125,-1.921875 1.5703125,-1.921875 0.7382812,0 0.9023437,0.609375 0.9023437,1.3359375 v 2.81250003 c 0,0.52734375 -0.1289062,0.52734375 -0.9023437,0.52734375 v 0.3515625 c 0.3046875,-0.0234375 0.9492187,-0.0234375 1.2890625,-0.0234375 0.3398437,0 0.984375,0 1.3007812,0.0234375 v -0.3515625 c -0.5976562,0 -0.9023437,0 -0.9140625,-0.3515625 z m 3.2636724,-4.453125 c 0,-0.3164063 -0.246094,-0.5859375 -0.574219,-0.5859375 -0.316406,0 -0.574219,0.2460937 -0.574219,0.5742187 0,0.3515625 0.28125,0.5859375 0.574219,0.5859375 0.363281,0 0.574219,-0.3164062 0.574219,-0.5742187 z m -1.640625,2.2148437 v 0.3515625 c 0.761718,0 0.867187,0.070312 0.867187,0.65625 v 3.25781253 c 0,0.52734375 -0.128906,0.52734375 -0.902344,0.52734375 v 0.3515625 c 0.328125,-0.0234375 0.902344,-0.0234375 1.253907,-0.0234375 0.128906,0 0.820312,0 1.230468,0.0234375 v -0.3515625 c -0.773437,0 -0.832031,-0.0585938 -0.832031,-0.515625 V -5.2745781 Z m 8.138671,2.2382813 c 0,-1.1132813 0,-1.4414063 -0.28125,-1.828125 -0.339843,-0.46875 -0.902343,-0.5390625 -1.3125,-0.5390625 -1.160156,0 -1.605468,0.9960937 -1.710937,1.2304687 h -0.01172 v -1.2304687 l -1.617187,0.1289062 v 0.3515625 c 0.808593,0 0.902343,0.082031 0.902343,0.6679688 v 3.24609373 c 0,0.52734375 -0.128906,0.52734375 -0.902343,0.52734375 v 0.3515625 c 0.304687,-0.0234375 0.949218,-0.0234375 1.289062,-0.0234375 0.339844,0 0.984375,0 1.300781,0.0234375 v -0.3515625 c -0.761718,0 -0.914062,0 -0.914062,-0.52734375 V -3.1066094 c 0,-1.2539062 0.832031,-1.921875 1.570312,-1.921875 0.738282,0 0.914063,0.609375 0.914063,1.3359375 v 2.81250003 c 0,0.52734375 -0.140625,0.52734375 -0.914063,0.52734375 v 0.3515625 c 0.316407,-0.0234375 0.960938,-0.0234375 1.289063,-0.0234375 0.351562,0 0.996094,0 1.300781,0.0234375 v -0.3515625 c -0.597656,0 -0.890625,0 -0.902344,-0.3515625 z m 0,0"
       style="fill:#000000;fill-opacity:1;fill-rule:nonzero;stroke:none"
       aria-label="min"
       transform="matrix(1.3333333,0,0,1.3333333,335.69467,189.50933)" />
    <path
       id="path8"
       d="M 0,0 V 18.78"
       style="fill:none;stroke:#bfbfbf;stroke-width:0.199;stroke-linecap:butt;stroke-linejoin:miter;stroke-miterlimit:10;stroke-dasharray:none;stroke-opacity:1"
       transform="matrix(1.3333333,0,0,-1.3333333,369.81067,197.02133)" />
    <path
       id="path9"
       d="m 5.3560156,-3.8214531 c 0,-0.9960938 -0.058594,-1.96875 -0.4921875,-2.8710938 -0.4921875,-0.9960937 -1.3476562,-1.2539062 -1.9335937,-1.2539062 -0.6914063,0 -1.546875,0.3398437 -1.98046877,1.3359375 -0.33984375,0.75 -0.45703125,1.4882812 -0.45703125,2.7890625 0,1.1601562 0.0820313,2.0273437 0.51562502,2.87109373 0.4570312,0.9140625 1.2890625,1.1953125 1.9101562,1.1953125 1.0429688,0 1.640625,-0.62109375 1.9804688,-1.31250003 0.4335937,-0.890625 0.4570312,-2.0625 0.4570312,-2.7539062 z m -2.4375,3.83203123 c -0.3867187,0 -1.1601562,-0.2109375 -1.3828125,-1.52343753 -0.140625,-0.7148437 -0.140625,-1.6171875 -0.140625,-2.4609375 0,-0.9726562 0,-1.8632812 0.1992188,-2.5664062 0.1992187,-0.796875 0.8085937,-1.171875 1.3242187,-1.171875 0.4570313,0 1.1484375,0.28125 1.3710938,1.3007812 0.1523437,0.6796875 0.1523437,1.6289063 0.1523437,2.4375 0,0.8085938 0,1.7109375 -0.1289062,2.4375 -0.2226563,1.32421878 -0.9726563,1.54687503 -1.3945313,1.54687503 z m 5.2675782,0.03515625 c 0,-0.73828125 -0.2578125,-1.20703128 -0.7148438,-1.20703128 -0.3515625,0 -0.5742187,0.25781253 -0.5742187,0.57421878 0,0.328125 0.2226562,0.5859375 0.5859375,0.5859375 0.1757812,0 0.3046875,-0.08203125 0.375,-0.140625 0.035156,-0.0351563 0.046875,-0.0351563 0.058594,-0.0351563 0.035156,0 0.035156,0.1640625 0.035156,0.22265625 0,0.76171875 -0.3164063,1.48828127 -0.84375,2.02734377 -0.046875,0.046875 -0.058594,0.070312 -0.058594,0.1171875 0,0.058594 0.058594,0.1171875 0.1171875,0.1171875 0.1054688,0 1.0195313,-0.890625 1.0195315,-2.26171872 z M 10.641172,-6.8448906 c 0.503906,0.1640625 0.925781,0.1757812 1.054687,0.1757812 1.359375,0 2.214844,-0.9960937 2.214844,-1.1601562 0,-0.046875 -0.02344,-0.1054688 -0.09375,-0.1054688 -0.02344,0 -0.04687,0 -0.152344,0.046875 -0.667968,0.28125 -1.242187,0.3164063 -1.558593,0.3164063 -0.785157,0 -1.347657,-0.234375 -1.582032,-0.328125 -0.08203,-0.035156 -0.105468,-0.035156 -0.117187,-0.035156 -0.09375,0 -0.09375,0.070312 -0.09375,0.2578125 v 3.5507813 c 0,0.2109375 0,0.2929687 0.140625,0.2929687 0.05859,0 0.07031,-0.011719 0.199219,-0.1640625 0.328125,-0.4921875 0.890625,-0.7734375 1.488281,-0.7734375 0.632812,0 0.949219,0.5859375 1.042969,0.7851563 0.199218,0.46875 0.210937,1.0546875 0.210937,1.5117187 0,0.4570313 0,1.1367188 -0.328125,1.67578128 -0.269531,0.421875 -0.738281,0.7265625 -1.253906,0.7265625 -0.796875,0 -1.570313,-0.5390625 -1.78125,-1.40624998 0.05859,0.023437 0.128906,0.035156 0.1875,0.035156 0.199219,0 0.527344,-0.1289062 0.527344,-0.5273437 0,-0.3398438 -0.234375,-0.5273438 -0.527344,-0.5273438 -0.210938,0 -0.5273439,0.1054688 -0.5273439,0.5742188 0,1.00781248 0.8085939,2.16796873 2.1445309,2.16796873 1.347657,0 2.53125,-1.125 2.53125,-2.64843753 0,-1.4179687 -0.960937,-2.6015625 -2.214843,-2.6015625 -0.679688,0 -1.207032,0.2929688 -1.511719,0.6328125 z m 0,0"
       style="fill:#000000;fill-opacity:1;fill-rule:nonzero;stroke:none"
       aria-label="0,5"
       transform="matrix(1.3333333,0,0,1.3333333,377.91333,189.50933)" />
    <path
       id="path10"
       d="M 0,0 V 18.78"
       style="fill:none;stroke:#bfbfbf;stroke-width:0.199;stroke-linecap:butt;stroke-linejoin:miter;stroke-miterlimit:10;stroke-dasharray:none;stroke-opacity:1"
       transform="matrix(1.3333333,0,0,-1.3333333,405.96,197.02133)" />
    <path
       id="path11"
       d="m 3.4459219,-7.6652031 c 0,-0.2695313 0,-0.28125 -0.2460938,-0.28125 -0.28125,0.3164062 -0.8789062,0.7617187 -2.109375,0.7617187 v 0.3515625 c 0.2695313,0 0.8671875,0 1.5234375,-0.3164062 v 6.22265623 c 0,0.43359375 -0.035156,0.57421875 -1.078125,0.57421875 h -0.375 v 0.3515625 c 0.3164063,-0.0234375 1.4765625,-0.0234375 1.875,-0.0234375 0.3984375,0 1.546875,0 1.8632813,0.0234375 v -0.3515625 H 4.5357656 c -1.0546875,0 -1.0898437,-0.140625 -1.0898437,-0.57421875 z m 0,0"
       style="fill:#000000;fill-opacity:1;fill-rule:nonzero;stroke:none"
       aria-label="1"
       transform="matrix(1.3333333,0,0,1.3333333,420.132,189.50933)" />
    <path
       id="path12"
       d="M 0,0 V 18.78"
       style="fill:none;stroke:#bfbfbf;stroke-width:0.199;stroke-linecap:butt;stroke-linejoin:miter;stroke-miterlimit:10;stroke-dasharray:none;stroke-opacity:1"
       transform="matrix(1.3333333,0,0,-1.3333333,442.10933,197.02133)" />
    <path
       id="path13"
       d="m 3.4442969,-7.6652031 c 0,-0.2695313 0,-0.28125 -0.2460938,-0.28125 -0.28125,0.3164062 -0.8789062,0.7617187 -2.109375,0.7617187 v 0.3515625 c 0.2695313,0 0.8671875,0 1.5234375,-0.3164062 v 6.22265623 c 0,0.43359375 -0.035156,0.57421875 -1.078125,0.57421875 h -0.375 v 0.3515625 c 0.3164063,-0.0234375 1.4765625,-0.0234375 1.875,-0.0234375 0.3984375,0 1.546875,0 1.8632813,0.0234375 v -0.3515625 H 4.5341406 c -1.0546875,0 -1.0898437,-0.140625 -1.0898437,-0.57421875 z m 4.7402344,7.71093748 c 0,-0.73828125 -0.2578125,-1.20703128 -0.7148438,-1.20703128 -0.3515625,0 -0.5742187,0.25781253 -0.5742187,0.57421878 0,0.328125 0.2226562,0.5859375 0.5859375,0.5859375 0.1757812,0 0.3046875,-0.08203125 0.375,-0.140625 0.035156,-0.0351563 0.046875,-0.0351563 0.058594,-0.0351563 0.035156,0 0.035156,0.1640625 0.035156,0.22265625 0,0.76171875 -0.3164063,1.48828117 -0.84375,2.02734377 -0.046875,0.046875 -0.058594,0.070312 -0.058594,0.1171875 0,0.058594 0.058594,0.1171875 0.1171875,0.1171875 0.1054688,0 1.0195313,-0.8906251 1.0195315,-2.26171872 z M 10.639609,-6.8448906 c 0.503907,0.1640625 0.925782,0.1757812 1.054688,0.1757812 1.359375,0 2.214844,-0.9960937 2.214844,-1.1601562 0,-0.046875 -0.02344,-0.1054688 -0.09375,-0.1054688 -0.02344,0 -0.04687,0 -0.152344,0.046875 -0.667969,0.28125 -1.242188,0.3164063 -1.558594,0.3164063 -0.785156,0 -1.347656,-0.234375 -1.582031,-0.328125 -0.08203,-0.035156 -0.105469,-0.035156 -0.117188,-0.035156 -0.09375,0 -0.09375,0.070312 -0.09375,0.2578125 v 3.5507813 c 0,0.2109375 0,0.2929687 0.140625,0.2929687 0.05859,0 0.07031,-0.011719 0.199219,-0.1640625 0.328125,-0.4921875 0.890625,-0.7734375 1.488281,-0.7734375 0.632813,0 0.949219,0.5859375 1.042969,0.7851563 0.199219,0.46875 0.210938,1.0546875 0.210938,1.5117187 0,0.4570313 0,1.1367188 -0.328125,1.67578128 -0.269532,0.421875 -0.738282,0.7265625 -1.253907,0.7265625 -0.796875,0 -1.570312,-0.5390625 -1.78125,-1.40624998 0.05859,0.023437 0.128907,0.035156 0.1875,0.035156 0.199219,0 0.527344,-0.1289062 0.527344,-0.5273437 0,-0.3398438 -0.234375,-0.5273438 -0.527344,-0.5273438 -0.210937,0 -0.5273434,0.1054688 -0.5273434,0.5742188 0,1.00781248 0.8085934,2.16796873 2.1445314,2.16796873 1.347656,0 2.53125,-1.125 2.53125,-2.64843753 0,-1.4179687 -0.960938,-2.6015625 -2.214844,-2.6015625 -0.679687,0 -1.207031,0.2929688 -1.511719,0.6328125 z m 0,0"
       style="fill:#000000;fill-opacity:1;fill-rule:nonzero;stroke:none"
       aria-label="1,5"
       transform="matrix(1.3333333,0,0,1.3333333,451.94667,189.50933)" />
    <path
       id="path14"
       d="M 0,0 V 18.78"
       style="fill:none;stroke:#bfbfbf;stroke-width:0.199;stroke-linecap:butt;stroke-linejoin:miter;stroke-miterlimit:10;stroke-dasharray:none;stroke-opacity:1"
       transform="matrix(1.3333333,0,0,-1.3333333,481.72667,197.02133)" />
    <path
       id="path15"
       d="M 5.2613281,-2.0050469 H 4.9917969 c -0.035156,0.1992188 -0.1289063,0.8554688 -0.2460938,1.04296878 -0.082031,0.1171875 -0.7617187,0.1171875 -1.125,0.1171875 H 1.4058594 c 0.328125,-0.28124998 1.0546875,-1.04296878 1.3710937,-1.33593748 1.8164063,-1.6640625 2.484375,-2.2851563 2.484375,-3.46875 0,-1.3828125 -1.0898437,-2.296875 -2.4726562,-2.296875 -1.3945313,0 -2.20312502,1.1835937 -2.20312502,2.203125 0,0.609375 0.52734372,0.609375 0.56250002,0.609375 0.2460937,0 0.5625,-0.1757813 0.5625,-0.5625 0,-0.328125 -0.234375,-0.5507813 -0.5625,-0.5507813 -0.1054688,0 -0.1289063,0 -0.16406252,0.011719 0.22265622,-0.8203125 0.86718752,-1.3710938 1.64062502,-1.3710938 1.0195312,0 1.640625,0.8554688 1.640625,1.9570313 0,1.0078125 -0.5859375,1.8984375 -1.265625,2.6601562 l -2.41406252,2.70703128 v 0.28125 H 4.9449219 Z m 0,0"
       style="fill:#000000;fill-opacity:1;fill-rule:nonzero;stroke:none"
       aria-label="2"
       transform="matrix(1.3333333,0,0,1.3333333,497.63333,189.50933)" />
    <path
       id="path16"
       d="M 0,0 V 18.78"
       style="fill:none;stroke:#bfbfbf;stroke-width:0.199;stroke-linecap:butt;stroke-linejoin:miter;stroke-miterlimit:10;stroke-dasharray:none;stroke-opacity:1"
       transform="matrix(1.3333333,0,0,-1.3333333,521.34533,197.02133)" />
    <path
       id="path17"
       d="M 5.2626328,-2.0050469 H 4.9931016 c -0.035156,0.1992188 -0.1289063,0.8554688 -0.2460938,1.04296878 -0.082031,0.1171875 -0.7617187,0.1171875 -1.125,0.1171875 H 1.4071641 c 0.328125,-0.28124998 1.0546875,-1.04296878 1.3710937,-1.33593748 1.8164063,-1.6640625 2.484375,-2.2851563 2.484375,-3.46875 0,-1.3828125 -1.0898437,-2.296875 -2.4726562,-2.296875 -1.3945313,0 -2.20312504,1.1835937 -2.20312504,2.203125 0,0.609375 0.52734374,0.609375 0.56250004,0.609375 0.2460937,0 0.5625,-0.1757813 0.5625,-0.5625 0,-0.328125 -0.234375,-0.5507813 -0.5625,-0.5507813 -0.1054688,0 -0.1289063,0 -0.16406254,0.011719 0.22265624,-0.8203125 0.86718754,-1.3710938 1.64062504,-1.3710938 1.0195312,0 1.640625,0.8554688 1.640625,1.9570313 0,1.0078125 -0.5859375,1.8984375 -1.265625,2.6601562 l -2.41406254,2.70703128 v 0.28125 H 4.9462266 Z m 2.9238281,2.05078128 c 0,-0.73828125 -0.2578125,-1.20703128 -0.7148437,-1.20703128 -0.3515625,0 -0.5742188,0.25781253 -0.5742188,0.57421878 0,0.328125 0.2226563,0.5859375 0.5859375,0.5859375 0.1757813,0 0.3046875,-0.08203125 0.375,-0.140625 0.035156,-0.0351563 0.046875,-0.0351563 0.058594,-0.0351563 0.035156,0 0.035156,0.1640625 0.035156,0.22265625 0,0.76171875 -0.3164062,1.48828117 -0.84375,2.02734377 -0.046875,0.046875 -0.058594,0.070312 -0.058594,0.1171875 0,0.058594 0.058594,0.1171875 0.1171875,0.1171875 0.1054687,0 1.0195312,-0.8906251 1.0195315,-2.26171872 z M 10.641539,-6.8448906 c 0.503906,0.1640625 0.925781,0.1757812 1.054688,0.1757812 1.359375,0 2.214843,-0.9960937 2.214843,-1.1601562 0,-0.046875 -0.02344,-0.1054688 -0.09375,-0.1054688 -0.02344,0 -0.04687,0 -0.152343,0.046875 -0.667969,0.28125 -1.242188,0.3164063 -1.558594,0.3164063 -0.785156,0 -1.347656,-0.234375 -1.582031,-0.328125 -0.08203,-0.035156 -0.105469,-0.035156 -0.117188,-0.035156 -0.09375,0 -0.09375,0.070312 -0.09375,0.2578125 v 3.5507813 c 0,0.2109375 0,0.2929687 0.140625,0.2929687 0.05859,0 0.07031,-0.011719 0.199219,-0.1640625 0.328125,-0.4921875 0.890625,-0.7734375 1.488281,-0.7734375 0.632813,0 0.949219,0.5859375 1.042969,0.7851563 0.199219,0.46875 0.210937,1.0546875 0.210937,1.5117187 0,0.4570313 0,1.1367188 -0.328125,1.67578128 -0.269531,0.421875 -0.738281,0.7265625 -1.253906,0.7265625 -0.796875,0 -1.570312,-0.5390625 -1.78125,-1.40624998 0.05859,0.023437 0.128906,0.035156 0.1875,0.035156 0.199219,0 0.527344,-0.1289062 0.527344,-0.5273437 0,-0.3398438 -0.234375,-0.5273438 -0.527344,-0.5273438 -0.210937,0 -0.5273437,0.1054688 -0.5273437,0.5742188 0,1.00781248 0.8085937,2.16796873 2.1445317,2.16796873 1.347656,0 2.53125,-1.125 2.53125,-2.64843753 0,-1.4179687 -0.960938,-2.6015625 -2.214844,-2.6015625 -0.679688,0 -1.207031,0.2929688 -1.511719,0.6328125 z m 0,0"
       style="fill:#000000;fill-opacity:1;fill-rule:nonzero;stroke:none"
       aria-label="2,5"
       transform="matrix(1.3333333,0,0,1.3333333,529.448,189.50933)" />
    <path
       id="path18"
       d="M 0,0 H 241.731"
       style="fill:none;stroke:#bfbfbf;stroke-width:0.199;stroke-linecap:butt;stroke-linejoin:miter;stroke-miterlimit:10;stroke-dasharray:none;stroke-opacity:1"
       transform="matrix(1.3333333,0,0,-1.3333333,235.05333,197.15467)" />
    <path
       id="path19"
       d="m 5.3550469,-3.8190078 c 0,-0.9960938 -0.058594,-1.96875 -0.4921875,-2.8710938 -0.4921875,-0.9960937 -1.3476563,-1.2539062 -1.9335938,-1.2539062 -0.6914062,0 -1.546875,0.3398437 -1.98046873,1.3359375 -0.33984375,0.75 -0.45703125,1.4882812 -0.45703125,2.7890625 0,1.1601562 0.0820313,2.0273437 0.51562498,2.87109374 0.4570313,0.9140625 1.2890625,1.1953125 1.9101563,1.1953125 1.0429687,0 1.640625,-0.62109375 1.9804687,-1.31250004 0.4335938,-0.890625 0.4570313,-2.0625 0.4570313,-2.7539062 z m -2.4375,3.83203124 c -0.3867188,0 -1.1601563,-0.2109375 -1.3828125,-1.52343754 -0.140625,-0.7148437 -0.140625,-1.6171875 -0.140625,-2.4609375 0,-0.9726562 0,-1.8632812 0.1992187,-2.5664062 0.1992188,-0.796875 0.8085938,-1.171875 1.3242188,-1.171875 0.4570312,0 1.1484375,0.28125 1.3710937,1.3007812 0.1523438,0.6796875 0.1523438,1.6289063 0.1523438,2.4375 0,0.8085938 0,1.7109375 -0.1289063,2.4375 C 4.0894219,-0.20963281 3.3394219,0.01302344 2.9175469,0.01302344 Z M 8.185125,0.04817969 c 0,-0.73828125 -0.2578125,-1.20703129 -0.7148438,-1.20703129 -0.3515625,0 -0.5742187,0.25781254 -0.5742187,0.57421879 0,0.328125 0.2226562,0.5859375 0.5859375,0.5859375 0.1757812,0 0.3046875,-0.08203125 0.375,-0.140625 0.035156,-0.0351563 0.046875,-0.0351563 0.058594,-0.0351563 0.035156,0 0.035156,0.1640625 0.035156,0.22265625 0,0.76171875 -0.3164063,1.48828116 -0.84375,2.02734366 -0.046875,0.046875 -0.058594,0.070312 -0.058594,0.1171875 0,0.058594 0.058594,0.1171875 0.1171875,0.1171875 0.1054688,0 1.0195313,-0.890625 1.0195315,-2.26171861 z m 2.455078,-6.89062499 c 0.503906,0.1640625 0.925781,0.1757812 1.054688,0.1757812 1.359375,0 2.214843,-0.9960937 2.214843,-1.1601562 0,-0.046875 -0.02344,-0.1054688 -0.09375,-0.1054688 -0.02344,0 -0.04687,0 -0.152343,0.046875 -0.667969,0.28125 -1.242188,0.3164063 -1.558594,0.3164063 -0.785156,0 -1.347656,-0.234375 -1.582031,-0.328125 -0.08203,-0.035156 -0.105469,-0.035156 -0.117188,-0.035156 -0.09375,0 -0.09375,0.070312 -0.09375,0.2578125 v 3.5507813 c 0,0.2109375 0,0.2929687 0.140625,0.2929687 0.05859,0 0.07031,-0.011719 0.199219,-0.1640625 0.328125,-0.4921875 0.890625,-0.7734375 1.488281,-0.7734375 0.632813,0 0.949219,0.5859375 1.042969,0.7851563 0.199219,0.46875 0.210937,1.0546875 0.210937,1.5117187 0,0.4570313 0,1.1367188 -0.328125,1.67578129 -0.269531,0.421875 -0.738281,0.7265625 -1.253906,0.7265625 -0.796875,0 -1.570312,-0.5390625 -1.78125,-1.40624999 0.05859,0.023437 0.128906,0.035156 0.1875,0.035156 0.199219,0 0.527344,-0.1289062 0.527344,-0.5273437 0,-0.3398438 -0.234375,-0.5273438 -0.527344,-0.5273438 -0.210937,0 -0.5273436,0.1054688 -0.5273436,0.5742188 0,1.00781249 0.8085936,2.16796874 2.1445316,2.16796874 1.347656,0 2.53125,-1.125 2.53125,-2.64843754 0,-1.4179687 -0.960938,-2.6015625 -2.214844,-2.6015625 -0.679688,0 -1.207031,0.2929688 -1.511719,0.6328125 z m 14.833008,3.9375 c 0,-1.1132813 0,-1.4414063 -0.269531,-1.828125 -0.351563,-0.46875 -0.914063,-0.5390625 -1.3125,-0.5390625 -0.996094,0 -1.5,0.7148437 -1.6875,1.1835937 -0.164063,-0.9140625 -0.808594,-1.1835937 -1.570313,-1.1835937 -1.160156,0 -1.605469,0.9960937 -1.710937,1.2304687 h -0.01172 v -1.2304687 l -1.617188,0.1289062 v 0.3515625 c 0.808594,0 0.902344,0.082031 0.902344,0.6679688 v 3.24609374 c 0,0.52734375 -0.128906,0.52734375 -0.902344,0.52734375 v 0.3515625 c 0.304688,-0.0234375 0.949219,-0.0234375 1.289063,-0.0234375 0.339844,0 0.984375,0 1.300781,0.0234375 v -0.3515625 c -0.761719,0 -0.914062,0 -0.914062,-0.52734375 V -3.1041641 c 0,-1.2539062 0.832031,-1.921875 1.570312,-1.921875 0.738281,0 0.914063,0.609375 0.914063,1.3359375 v 2.81250004 c 0,0.52734375 -0.140625,0.52734375 -0.914063,0.52734375 v 0.3515625 c 0.316406,-0.0234375 0.960938,-0.0234375 1.289063,-0.0234375 0.351562,0 0.996093,0 1.300781,0.0234375 v -0.3515625 c -0.761719,0 -0.902344,0 -0.902344,-0.52734375 V -3.1041641 c 0,-1.2539062 0.820313,-1.921875 1.570313,-1.921875 0.738281,0 0.902343,0.609375 0.902343,1.3359375 v 2.81250004 c 0,0.52734375 -0.128906,0.52734375 -0.902343,0.52734375 v 0.3515625 c 0.304687,-0.0234375 0.949218,-0.0234375 1.289062,-0.0234375 0.339844,0 0.984375,0 1.300781,0.0234375 v -0.3515625 c -0.597656,0 -0.902343,0 -0.914062,-0.3515625 z m 9.755859,0 c 0,-1.1132813 0,-1.4414063 -0.269531,-1.828125 -0.351562,-0.46875 -0.914062,-0.5390625 -1.3125,-0.5390625 -0.996094,0 -1.5,0.7148437 -1.6875,1.1835937 -0.164062,-0.9140625 -0.808594,-1.1835937 -1.570312,-1.1835937 -1.160157,0 -1.605469,0.9960937 -1.710938,1.2304687 h -0.01172 v -1.2304687 l -1.617187,0.1289062 v 0.3515625 c 0.808594,0 0.902344,0.082031 0.902344,0.6679688 v 3.24609374 c 0,0.52734375 -0.128907,0.52734375 -0.902344,0.52734375 v 0.3515625 c 0.304687,-0.0234375 0.949219,-0.0234375 1.289062,-0.0234375 0.339844,0 0.984375,0 1.300782,0.0234375 v -0.3515625 c -0.761719,0 -0.914063,0 -0.914063,-0.52734375 V -3.1041641 c 0,-1.2539062 0.832031,-1.921875 1.570313,-1.921875 0.738281,0 0.914062,0.609375 0.914062,1.3359375 v 2.81250004 c 0,0.52734375 -0.140625,0.52734375 -0.914062,0.52734375 v 0.3515625 c 0.316406,-0.0234375 0.960937,-0.0234375 1.289062,-0.0234375 0.351563,0 0.996094,0 1.300781,0.0234375 v -0.3515625 c -0.761718,0 -0.902343,0 -0.902343,-0.52734375 V -3.1041641 c 0,-1.2539062 0.820312,-1.921875 1.570312,-1.921875 0.738281,0 0.902344,0.609375 0.902344,1.3359375 v 2.81250004 c 0,0.52734375 -0.128906,0.52734375 -0.902344,0.52734375 v 0.3515625 c 0.304688,-0.0234375 0.949219,-0.0234375 1.289063,-0.0234375 0.339843,0 0.984375,0 1.300781,0.0234375 v -0.3515625 c -0.597656,0 -0.902344,0 -0.914063,-0.3515625 z m 0,0"
       style="fill:#000000;fill-opacity:1;fill-rule:nonzero;stroke:none"
       aria-label="0,5mm"
       transform="matrix(1.3333333,0,0,1.3333333,243.024,214.81467)" />
    <path
       id="path20"
       d="M 0,0 V 18.78"
       style="fill:none;stroke:#bfbfbf;stroke-width:0.199;stroke-linecap:butt;stroke-linejoin:miter;stroke-miterlimit:10;stroke-dasharray:none;stroke-opacity:1"
       transform="matrix(1.3333333,0,0,-1.3333333,299.68533,222.32667)" />
    <path
       id="path21"
       d="m 6.8093906,-2.7526016 c 0,1.6757813 -1.125,2.66015629 -2.25,2.66015629 -0.7265625,0 -1.96875,-0.48046875 -1.96875,-2.56640629 v -4.59375 c 0,-0.4453125 0.035156,-0.5625 0.9023438,-0.5625 h 0.234375 v -0.3515625 c -0.28125,0.023437 -1.265625,0.023437 -1.6054688,0.023437 -0.3632812,0 -1.34765623,0 -1.62890623,-0.023437 v 0.3515625 h 0.234375 c 0.86718753,0 0.90234373,0.1171875 0.90234373,0.5625 v 4.5117188 c 0,1.734375 1.3828125,2.98828124 2.90625,2.98828124 1.6523438,0 2.6015625,-1.61718754 2.6015625,-2.81250004 v -4.5234375 c 0,-0.7265625 0.9140625,-0.7265625 1.1367188,-0.7265625 v -0.3515625 c -0.3164063,0.023437 -0.9609375,0.023437 -1.2890625,0.023437 -0.3515625,0 -0.9960938,0 -1.3007813,-0.023437 v 0.3515625 c 1.125,0 1.125,0.5625 1.125,0.8789063 z m 0,0"
       style="fill:#000000;fill-opacity:1;fill-rule:nonzero;stroke:none"
       aria-label="U"
       transform="matrix(1.3333333,0,0,1.3333333,307.788,214.81467)" />
    <path
       id="path22"
       d="M 0,0 V 18.78"
       style="fill:none;stroke:#bfbfbf;stroke-width:0.199;stroke-linecap:butt;stroke-linejoin:miter;stroke-miterlimit:10;stroke-dasharray:none;stroke-opacity:1"
       transform="matrix(1.3333333,0,0,-1.3333333,327.59067,222.32667)" />
    <path
       id="path23"
       d="m 3.4439688,-7.6627578 c 0,-0.2695313 0,-0.28125 -0.2460938,-0.28125 -0.28125,0.3164062 -0.8789062,0.7617187 -2.109375,0.7617187 v 0.3515625 c 0.2695313,0 0.8671875,0 1.5234375,-0.3164062 v 6.22265624 c 0,0.43359375 -0.035156,0.57421875 -1.078125,0.57421875 h -0.375 v 0.3515625 c 0.3164063,-0.0234375 1.4765625,-0.0234375 1.875,-0.0234375 0.3984375,0 1.546875,0 1.8632813,0.0234375 v -0.3515625 H 4.5338125 c -1.0546875,0 -1.0898437,-0.140625 -1.0898437,-0.57421875 z m 0,0"
       style="fill:#000000;fill-opacity:1;fill-rule:nonzero;stroke:none"
       aria-label="1"
       transform="matrix(1.3333333,0,0,1.3333333,344.79867,214.81467)" />
    <path
       id="path24"
       d="M 0,0 V 18.78"
       style="fill:none;stroke:#bfbfbf;stroke-width:0.199;stroke-linecap:butt;stroke-linejoin:miter;stroke-miterlimit:10;stroke-dasharray:none;stroke-opacity:1"
       transform="matrix(1.3333333,0,0,-1.3333333,369.81067,222.32667)" />
    <path
       id="path25"
       d="m 5.3560156,-3.8190078 c 0,-0.9960938 -0.058594,-1.96875 -0.4921875,-2.8710938 -0.4921875,-0.9960937 -1.3476562,-1.2539062 -1.9335937,-1.2539062 -0.6914063,0 -1.546875,0.3398437 -1.98046877,1.3359375 -0.33984375,0.75 -0.45703125,1.4882812 -0.45703125,2.7890625 0,1.1601562 0.0820313,2.0273437 0.51562502,2.87109374 0.4570312,0.9140625 1.2890625,1.1953125 1.9101562,1.1953125 1.0429688,0 1.640625,-0.62109375 1.9804688,-1.31250004 0.4335937,-0.890625 0.4570312,-2.0625 0.4570312,-2.7539062 z m -2.4375,3.83203124 c -0.3867187,0 -1.1601562,-0.2109375 -1.3828125,-1.52343754 -0.140625,-0.7148437 -0.140625,-1.6171875 -0.140625,-2.4609375 0,-0.9726562 0,-1.8632812 0.1992188,-2.5664062 0.1992187,-0.796875 0.8085937,-1.171875 1.3242187,-1.171875 0.4570313,0 1.1484375,0.28125 1.3710938,1.3007812 0.1523437,0.6796875 0.1523437,1.6289063 0.1523437,2.4375 0,0.8085938 0,1.7109375 -0.1289062,2.4375 -0.2226563,1.32421879 -0.9726563,1.54687504 -1.3945313,1.54687504 z m 5.2675782,0.03515625 c 0,-0.73828125 -0.2578125,-1.20703129 -0.7148438,-1.20703129 -0.3515625,0 -0.5742187,0.25781254 -0.5742187,0.57421879 0,0.328125 0.2226562,0.5859375 0.5859375,0.5859375 0.1757812,0 0.3046875,-0.08203125 0.375,-0.140625 0.035156,-0.0351563 0.046875,-0.0351563 0.058594,-0.0351563 0.035156,0 0.035156,0.1640625 0.035156,0.22265625 0,0.76171875 -0.3164063,1.48828116 -0.84375,2.02734366 -0.046875,0.046875 -0.058594,0.070312 -0.058594,0.1171875 0,0.058594 0.058594,0.1171875 0.1171875,0.1171875 0.1054688,0 1.0195313,-0.890625 1.0195315,-2.26171861 z M 12.551328,-7.6627578 c 0,-0.2695313 0,-0.28125 -0.246094,-0.28125 -0.28125,0.3164062 -0.878906,0.7617187 -2.109375,0.7617187 v 0.3515625 c 0.269532,0 0.867188,0 1.523438,-0.3164062 v 6.22265624 c 0,0.43359375 -0.03516,0.57421875 -1.078125,0.57421875 h -0.375 v 0.3515625 c 0.316406,-0.0234375 1.476562,-0.0234375 1.875,-0.0234375 0.398437,0 1.546875,0 1.863281,0.0234375 v -0.3515625 h -0.363281 c -1.054688,0 -1.089844,-0.140625 -1.089844,-0.57421875 z m 0,0"
       style="fill:#000000;fill-opacity:1;fill-rule:nonzero;stroke:none"
       aria-label="0,1"
       transform="matrix(1.3333333,0,0,1.3333333,377.91333,214.81467)" />
    <path
       id="path26"
       d="M 0,0 V 18.78"
       style="fill:none;stroke:#bfbfbf;stroke-width:0.199;stroke-linecap:butt;stroke-linejoin:miter;stroke-miterlimit:10;stroke-dasharray:none;stroke-opacity:1"
       transform="matrix(1.3333333,0,0,-1.3333333,405.96,222.32667)" />
    <path
       id="path27"
       d="m 5.3553437,-3.8190078 c 0,-0.9960938 -0.058594,-1.96875 -0.4921875,-2.8710938 C 4.3709687,-7.6861953 3.5155,-7.9440078 2.9295625,-7.9440078 c -0.6914063,0 -1.546875,0.3398437 -1.98046875,1.3359375 -0.33984375,0.75 -0.45703125,1.4882812 -0.45703125,2.7890625 0,1.1601562 0.0820312,2.0273437 0.515625,2.87109374 0.4570312,0.9140625 1.2890625,1.1953125 1.9101562,1.1953125 1.0429688,0 1.640625,-0.62109375 1.9804688,-1.31250004 0.4335937,-0.890625 0.4570312,-2.0625 0.4570312,-2.7539062 z m -2.4375,3.83203124 c -0.3867187,0 -1.1601562,-0.2109375 -1.3828125,-1.52343754 -0.140625,-0.7148437 -0.140625,-1.6171875 -0.140625,-2.4609375 0,-0.9726562 0,-1.8632812 0.1992188,-2.5664062 0.1992187,-0.796875 0.8085937,-1.171875 1.3242187,-1.171875 0.4570313,0 1.1484375,0.28125 1.3710938,1.3007812 0.1523437,0.6796875 0.1523437,1.6289063 0.1523437,2.4375 0,0.8085938 0,1.7109375 -0.1289062,2.4375 -0.2226563,1.32421879 -0.9726563,1.54687504 -1.3945313,1.54687504 z m 5.2675782,0.03515625 c 0,-0.73828125 -0.2578125,-1.20703129 -0.7148438,-1.20703129 -0.3515625,0 -0.5742187,0.25781254 -0.5742187,0.57421879 0,0.328125 0.2226562,0.5859375 0.5859375,0.5859375 0.1757812,0 0.3046875,-0.08203125 0.375,-0.140625 0.035156,-0.0351563 0.046875,-0.0351563 0.058594,-0.0351563 0.035156,0 0.035156,0.1640625 0.035156,0.22265625 0,0.76171875 -0.3164063,1.48828116 -0.84375,2.02734366 -0.046875,0.046875 -0.058594,0.070312 -0.058594,0.1171875 0,0.058594 0.058594,0.1171875 0.1171875,0.1171875 0.1054688,0 1.0195313,-0.890625 1.0195315,-2.26171861 z M 14.367062,-2.0026016 h -0.269531 c -0.03516,0.1992188 -0.128906,0.8554688 -0.246094,1.04296879 -0.08203,0.1171875 -0.761718,0.1171875 -1.125,0.1171875 h -2.214843 c 0.328125,-0.28124999 1.054687,-1.04296879 1.371093,-1.33593749 1.816407,-1.6640625 2.484375,-2.2851563 2.484375,-3.46875 0,-1.3828125 -1.089843,-2.296875 -2.472656,-2.296875 -1.394531,0 -2.2031248,1.1835937 -2.2031248,2.203125 0,0.609375 0.5273438,0.609375 0.5624998,0.609375 0.246094,0 0.5625,-0.1757813 0.5625,-0.5625 0,-0.328125 -0.234375,-0.5507813 -0.5625,-0.5507813 -0.105469,0 -0.128906,0 -0.164062,0.011719 0.222656,-0.8203125 0.867187,-1.3710938 1.640625,-1.3710938 1.019531,0 1.640625,0.8554688 1.640625,1.9570313 0,1.0078125 -0.585938,1.8984375 -1.265625,2.6601562 l -2.4140628,2.70703129 v 0.28125 h 4.3593748 z m 0,0"
       style="fill:#000000;fill-opacity:1;fill-rule:nonzero;stroke:none"
       aria-label="0,2"
       transform="matrix(1.3333333,0,0,1.3333333,414.06267,214.81467)" />
    <path
       id="path28"
       d="M 0,0 V 18.78"
       style="fill:none;stroke:#bfbfbf;stroke-width:0.199;stroke-linecap:butt;stroke-linejoin:miter;stroke-miterlimit:10;stroke-dasharray:none;stroke-opacity:1"
       transform="matrix(1.3333333,0,0,-1.3333333,442.10933,222.32667)" />
    <path
       id="path29"
       d="m 5.3544531,-3.8190078 c 0,-0.9960938 -0.058594,-1.96875 -0.4921875,-2.8710938 -0.4921875,-0.9960937 -1.3476562,-1.2539062 -1.9335937,-1.2539062 -0.6914063,0 -1.546875,0.3398437 -1.98046877,1.3359375 -0.33984375,0.75 -0.45703125,1.4882812 -0.45703125,2.7890625 0,1.1601562 0.0820313,2.0273437 0.51562502,2.87109374 0.4570312,0.9140625 1.2890625,1.1953125 1.9101562,1.1953125 1.0429688,0 1.640625,-0.62109375 1.9804688,-1.31250004 0.4335937,-0.890625 0.4570312,-2.0625 0.4570312,-2.7539062 z m -2.4375,3.83203124 c -0.3867187,0 -1.1601562,-0.2109375 -1.3828125,-1.52343754 -0.140625,-0.7148437 -0.140625,-1.6171875 -0.140625,-2.4609375 0,-0.9726562 0,-1.8632812 0.1992188,-2.5664062 0.1992187,-0.796875 0.8085937,-1.171875 1.3242187,-1.171875 0.4570313,0 1.1484375,0.28125 1.3710938,1.3007812 0.1523437,0.6796875 0.1523437,1.6289063 0.1523437,2.4375 0,0.8085938 0,1.7109375 -0.1289062,2.4375 -0.2226563,1.32421879 -0.9726563,1.54687504 -1.3945313,1.54687504 z m 5.2675782,0.03515625 c 0,-0.73828125 -0.2578125,-1.20703129 -0.7148438,-1.20703129 -0.3515625,0 -0.5742187,0.25781254 -0.5742187,0.57421879 0,0.328125 0.2226562,0.5859375 0.5859375,0.5859375 0.1757812,0 0.3046875,-0.08203125 0.375,-0.140625 0.035156,-0.0351563 0.046875,-0.0351563 0.058594,-0.0351563 0.035156,0 0.035156,0.1640625 0.035156,0.22265625 0,0.76171875 -0.3164063,1.48828116 -0.84375,2.02734366 -0.046875,0.046875 -0.058594,0.070312 -0.058594,0.1171875 0,0.058594 0.058594,0.1171875 0.1171875,0.1171875 0.1054688,0 1.0195313,-0.890625 1.0195315,-2.26171861 z M 11.307578,-4.2877578 c -0.210937,0.011719 -0.257812,0.023437 -0.257812,0.1289062 0,0.1171875 0.05859,0.1171875 0.28125,0.1171875 h 0.550781 c 1.007812,0 1.464844,0.84375 1.464844,1.9921875 0,1.55859379 -0.808594,1.98046879 -1.394532,1.98046879 -0.574218,0 -1.558593,-0.28125 -1.898437,-1.06640629 0.375,0.058594 0.726562,-0.1523437 0.726562,-0.5859375 0,-0.3398437 -0.257812,-0.5859375 -0.585937,-0.5859375 -0.2929689,0 -0.5976564,0.1640625 -0.5976564,0.6210938 0,1.06640624 1.0664064,1.93359374 2.3906254,1.93359374 1.417968,0 2.472656,-1.078125 2.472656,-2.28515624 0,-1.1015625 -0.890625,-1.96875 -2.027344,-2.1679688 1.03125,-0.3046875 1.699219,-1.171875 1.699219,-2.109375 0,-0.9375 -0.972656,-1.6289062 -2.132813,-1.6289062 -1.195312,0 -2.0859371,0.7265625 -2.0859371,1.59375 0,0.4804687 0.3750001,0.5742187 0.5507811,0.5742187 0.257813,0 0.539063,-0.1757812 0.539063,-0.5390625 0,-0.375 -0.28125,-0.5390625 -0.550782,-0.5390625 -0.07031,0 -0.09375,0 -0.128906,0.011719 0.457031,-0.8203125 1.582031,-0.8203125 1.640625,-0.8203125 0.386719,0 1.171875,0.1757812 1.171875,1.3476562 0,0.234375 -0.03516,0.9023438 -0.386719,1.4179688 -0.351562,0.5273437 -0.761718,0.5625 -1.089843,0.5742187 z m 0,0"
       style="fill:#000000;fill-opacity:1;fill-rule:nonzero;stroke:none"
       aria-label="0,3"
       transform="matrix(1.3333333,0,0,1.3333333,451.94667,214.81467)" />
    <path
       id="path30"
       d="M 0,0 V 18.78"
       style="fill:none;stroke:#bfbfbf;stroke-width:0.199;stroke-linecap:butt;stroke-linejoin:miter;stroke-miterlimit:10;stroke-dasharray:none;stroke-opacity:1"
       transform="matrix(1.3333333,0,0,-1.3333333,481.72667,222.32667)" />
    <path
       id="path31"
       d="m 5.3543437,-3.8190078 c 0,-0.9960938 -0.058594,-1.96875 -0.4921875,-2.8710938 C 4.3699687,-7.6861953 3.5145,-7.9440078 2.9285625,-7.9440078 c -0.6914063,0 -1.546875,0.3398437 -1.98046875,1.3359375 -0.33984375,0.75 -0.45703125,1.4882812 -0.45703125,2.7890625 0,1.1601562 0.0820312,2.0273437 0.515625,2.87109374 0.4570312,0.9140625 1.2890625,1.1953125 1.9101562,1.1953125 1.0429688,0 1.640625,-0.62109375 1.9804688,-1.31250004 0.4335937,-0.890625 0.4570312,-2.0625 0.4570312,-2.7539062 z m -2.4375,3.83203124 c -0.3867187,0 -1.1601562,-0.2109375 -1.3828125,-1.52343754 -0.140625,-0.7148437 -0.140625,-1.6171875 -0.140625,-2.4609375 0,-0.9726562 0,-1.8632812 0.1992188,-2.5664062 0.1992187,-0.796875 0.8085937,-1.171875 1.3242187,-1.171875 0.4570313,0 1.1484375,0.28125 1.3710938,1.3007812 0.1523437,0.6796875 0.1523437,1.6289063 0.1523437,2.4375 0,0.8085938 0,1.7109375 -0.1289062,2.4375 -0.2226563,1.32421879 -0.9726563,1.54687504 -1.3945313,1.54687504 z m 5.2675782,0.03515625 c 0,-0.73828125 -0.2578125,-1.20703129 -0.7148438,-1.20703129 -0.3515625,0 -0.5742187,0.25781254 -0.5742187,0.57421879 0,0.328125 0.2226562,0.5859375 0.5859375,0.5859375 0.1757812,0 0.3046875,-0.08203125 0.375,-0.140625 0.035156,-0.0351563 0.046875,-0.0351563 0.058594,-0.0351563 0.035156,0 0.035156,0.1640625 0.035156,0.22265625 0,0.76171875 -0.3164063,1.48828116 -0.84375,2.02734366 -0.046875,0.046875 -0.058594,0.070312 -0.058594,0.1171875 0,0.058594 0.058594,0.1171875 0.1171875,0.1171875 0.1054688,0 1.0195313,-0.890625 1.0195315,-2.26171861 z M 13.416844,-7.7799453 c 0,-0.2226563 0,-0.2929688 -0.164063,-0.2929688 -0.09375,0 -0.128906,0 -0.222656,0.1523438 l -3.5976563,5.578125 v 0.3515625 h 3.1406253 v 1.07812499 c 0,0.4453125 -0.02344,0.5625 -0.902344,0.5625 h -0.234375 v 0.3515625 c 0.269531,-0.0234375 1.21875,-0.0234375 1.558594,-0.0234375 0.328125,0 1.289062,0 1.558593,0.0234375 v -0.3515625 h -0.234375 c -0.867187,0 -0.902343,-0.1171875 -0.902343,-0.5625 V -1.9908828 h 1.207031 v -0.3515625 h -1.207031 z m -0.785157,0.9375 v 4.5 H 9.7254375 Z m 0,0"
       style="fill:#000000;fill-opacity:1;fill-rule:nonzero;stroke:none"
       aria-label="0,4"
       transform="matrix(1.3333333,0,0,1.3333333,491.564,214.81467)" />
    <path
       id="path32"
       d="M 0,0 V 18.78"
       style="fill:none;stroke:#bfbfbf;stroke-width:0.199;stroke-linecap:butt;stroke-linejoin:miter;stroke-miterlimit:10;stroke-dasharray:none;stroke-opacity:1"
       transform="matrix(1.3333333,0,0,-1.3333333,521.34533,222.32667)" />
    <path
       id="path33"
       d="m 5.3563828,-3.8190078 c 0,-0.9960938 -0.058594,-1.96875 -0.4921875,-2.8710938 -0.4921875,-0.9960937 -1.3476562,-1.2539062 -1.9335937,-1.2539062 -0.6914063,0 -1.546875,0.3398437 -1.98046879,1.3359375 -0.33984375,0.75 -0.45703125,1.4882812 -0.45703125,2.7890625 0,1.1601562 0.0820313,2.0273437 0.51562504,2.87109374 0.4570312,0.9140625 1.2890625,1.1953125 1.9101562,1.1953125 1.0429688,0 1.640625,-0.62109375 1.9804688,-1.31250004 0.4335937,-0.890625 0.4570312,-2.0625 0.4570312,-2.7539062 z m -2.4375,3.83203124 c -0.3867187,0 -1.1601562,-0.2109375 -1.3828125,-1.52343754 -0.140625,-0.7148437 -0.140625,-1.6171875 -0.140625,-2.4609375 0,-0.9726562 0,-1.8632812 0.1992188,-2.5664062 0.1992187,-0.796875 0.8085937,-1.171875 1.3242187,-1.171875 0.4570313,0 1.1484375,0.28125 1.3710938,1.3007812 0.1523437,0.6796875 0.1523437,1.6289063 0.1523437,2.4375 0,0.8085938 0,1.7109375 -0.1289062,2.4375 -0.2226563,1.32421879 -0.9726563,1.54687504 -1.3945313,1.54687504 z m 5.2675781,0.03515625 c 0,-0.73828125 -0.2578125,-1.20703129 -0.7148437,-1.20703129 -0.3515625,0 -0.5742188,0.25781254 -0.5742188,0.57421879 0,0.328125 0.2226563,0.5859375 0.5859375,0.5859375 0.1757813,0 0.3046875,-0.08203125 0.375,-0.140625 0.035156,-0.0351563 0.046875,-0.0351563 0.058594,-0.0351563 0.035156,0 0.035156,0.1640625 0.035156,0.22265625 0,0.76171875 -0.3164062,1.48828116 -0.84375,2.02734366 -0.046875,0.046875 -0.058594,0.070312 -0.058594,0.1171875 0,0.058594 0.058594,0.1171875 0.1171875,0.1171875 0.1054687,0 1.0195312,-0.890625 1.0195315,-2.26171861 z M 10.641539,-6.8424453 c 0.503906,0.1640625 0.925781,0.1757812 1.054688,0.1757812 1.359375,0 2.214843,-0.9960937 2.214843,-1.1601562 0,-0.046875 -0.02344,-0.1054688 -0.09375,-0.1054688 -0.02344,0 -0.04687,0 -0.152343,0.046875 -0.667969,0.28125 -1.242188,0.3164063 -1.558594,0.3164063 -0.785156,0 -1.347656,-0.234375 -1.582031,-0.328125 -0.08203,-0.035156 -0.105469,-0.035156 -0.117188,-0.035156 -0.09375,0 -0.09375,0.070312 -0.09375,0.2578125 v 3.5507813 c 0,0.2109375 0,0.2929687 0.140625,0.2929687 0.05859,0 0.07031,-0.011719 0.199219,-0.1640625 0.328125,-0.4921875 0.890625,-0.7734375 1.488281,-0.7734375 0.632813,0 0.949219,0.5859375 1.042969,0.7851563 0.199219,0.46875 0.210937,1.0546875 0.210937,1.5117187 0,0.4570313 0,1.1367188 -0.328125,1.67578129 -0.269531,0.421875 -0.738281,0.7265625 -1.253906,0.7265625 -0.796875,0 -1.570312,-0.5390625 -1.78125,-1.40624999 0.05859,0.023437 0.128906,0.035156 0.1875,0.035156 0.199219,0 0.527344,-0.1289062 0.527344,-0.5273437 0,-0.3398438 -0.234375,-0.5273438 -0.527344,-0.5273438 -0.210937,0 -0.5273437,0.1054688 -0.5273437,0.5742188 0,1.00781249 0.8085937,2.16796874 2.1445317,2.16796874 1.347656,0 2.53125,-1.125 2.53125,-2.64843754 0,-1.4179687 -0.960938,-2.6015625 -2.214844,-2.6015625 -0.679688,0 -1.207031,0.2929688 -1.511719,0.6328125 z m 0,0"
       style="fill:#000000;fill-opacity:1;fill-rule:nonzero;stroke:none"
       aria-label="0,5"
       transform="matrix(1.3333333,0,0,1.3333333,529.448,214.81467)" />
    <path
       id="path34"
       d="M 0,0 H 241.731"
       style="fill:none;stroke:#000000;stroke-width:0.996;stroke-linecap:butt;stroke-linejoin:miter;stroke-miterlimit:10;stroke-dasharray:none;stroke-opacity:1"
       transform="matrix(1.3333333,0,0,-1.3333333,235.05333,222.99067)" />
    <g
       id="g34"
       aria-label="d&#10;p"
       transform="matrix(1.3333333,0,0,1.3333333,260.07333,241.18267)">
      <path
         id="path35"
         d="m 6.0123828,-7.9914922 c 0.011719,-0.046875 0.035156,-0.1289062 0.035156,-0.1875 0,-0.1171875 -0.1171875,-0.1171875 -0.140625,-0.1171875 -0.011719,0 -0.5976563,0.046875 -0.65625,0.058594 -0.2109375,0.011719 -0.3867188,0.035156 -0.5976563,0.046875 -0.3046875,0.023437 -0.3867187,0.035156 -0.3867187,0.2578125 0,0.1171875 0.09375,0.1171875 0.2695312,0.1171875 0.5859375,0 0.5976563,0.1054687 0.5976563,0.2226562 0,0.070312 -0.023437,0.1757813 -0.035156,0.2109375 L 4.3600391,-4.4875859 C 4.2311328,-4.7922734 3.9147266,-5.2727422 3.2936328,-5.2727422 c -1.359375,0 -2.81249999,1.7460938 -2.81249999,3.515625 0,1.18359376 0.69140629,1.87500001 1.49999999,1.87500001 0.65625,0 1.21875,-0.515625 1.5585938,-0.90234375 0.1171875,0.703125 0.6796875,0.90234375 1.0429687,0.90234375 0.3515625,0 0.6445313,-0.2109375 0.8554688,-0.64453125 0.1875,-0.41015625 0.3632812,-1.13671876 0.3632812,-1.18359376 0,-0.058594 -0.046875,-0.1054687 -0.1171875,-0.1054687 -0.1171875,0 -0.1289062,0.058594 -0.1757812,0.234375 -0.1757813,0.71484371 -0.3984375,1.46484371 -0.890625,1.46484371 -0.3515625,0 -0.375,-0.31640625 -0.375,-0.55078125 0,-0.046875 0,-0.3046875 0.082031,-0.63281246 z m -2.4140625,6.5742188 c -0.058594,0.1992187 -0.058594,0.2226562 -0.2226562,0.44531246 -0.2695313,0.33984375 -0.796875,0.85546875 -1.359375,0.85546875 -0.4804688,0 -0.7617188,-0.4453125 -0.7617188,-1.14843751 0,-0.65625 0.375,-1.9921875 0.5976563,-2.4960937 0.4101562,-0.84375 0.9726562,-1.265625 1.4414062,-1.265625 0.7851563,0 0.9375,0.9726562 0.9375,1.0664062 0,0.011719 -0.035156,0.1757813 -0.046875,0.1992188 z m 0,0"
         style="fill:#000000;fill-opacity:1;fill-rule:nonzero;stroke:none" />
      <path
         id="path36"
         d="m 6.4928516,2.7546016 c -0.058594,0.2578125 -0.070312,0.3164062 -0.3984375,0.3164062 -0.1054688,0 -0.1992188,0 -0.1992188,0.1523438 0,0.082031 0.070312,0.1171875 0.1054688,0.1171875 0.082031,0 0.1171875,-0.023437 0.703125,-0.023437 0.5742187,0 0.7382812,0.023437 0.796875,0.023437 0.035156,0 0.1523437,0 0.1523437,-0.1523438 0,-0.1171875 -0.1171875,-0.1171875 -0.2109375,-0.1171875 -0.375,0 -0.375,-0.046875 -0.375,-0.1171875 0,-0.046875 0.140625,-0.6210937 0.375,-1.546875 0.1054688,0.1757813 0.3515625,0.46875 0.7851563,0.46875 0.984375,0 2.0039064,-1.13671874 2.0039064,-2.28515624 0,-0.79687496 -0.5156252,-1.31249996 -1.1484377,-1.31249996 -0.4804687,0 -0.8671875,0.328125 -1.0898437,0.5625 -0.1757813,-0.5625 -0.703125,-0.5625 -0.7851563,-0.5625 -0.2929687,0 -0.4921875,0.1875 -0.609375,0.4335937 -0.1875,0.35156251 -0.28125,0.76171876 -0.28125,0.78515626 0,0.0703125 0.058594,0.10546875 0.1289063,0.10546875 0.09375,0 0.1054687,-0.0351563 0.1640625,-0.234375 0.1054687,-0.41015621 0.2460937,-0.86718751 0.5742187,-0.86718751 0.1992188,0 0.2578125,0.1875 0.2578125,0.375 0,0.082031 -0.035156,0.26953126 -0.046875,0.33984376 z m 1.4648437,-3.41015629 c 0.046875,-0.140625 0.046875,-0.15234375 0.1640625,-0.3046875 0.3046875,-0.35156251 0.6445313,-0.53906251 0.9375,-0.53906251 0.3984375,0 0.5507813,0.3867188 0.5507813,0.75000001 0,0.29296875 -0.1757813,1.1484375 -0.421875,1.6171875 C 8.9889453,1.3014766 8.6022266,1.6530391 8.2272266,1.6530391 c -0.5390625,0 -0.6679688,-0.6210938 -0.6679688,-0.67968754 0,-0.0117188 0.011719,-0.10546875 0.023437,-0.12890625 z m 0,0"
         style="fill:#000000;fill-opacity:1;fill-rule:nonzero;stroke:none" />
    </g>
    <path
       id="path37"
       d="M 0,0 V 18.78"
       style="fill:none;stroke:#bfbfbf;stroke-width:0.199;stroke-linecap:butt;stroke-linejoin:miter;stroke-miterlimit:10;stroke-dasharray:none;stroke-opacity:1"
       transform="matrix(1.3333333,0,0,-1.3333333,299.68533,248.69467)" />
    <path
       id="path38"
       d="m 2.4025781,-4.8039922 h 1.1015625 c 0.2226563,0 0.3398438,0 0.3398438,-0.2109375 0,-0.140625 -0.070312,-0.140625 -0.3046875,-0.140625 H 2.4846094 l 0.4453125,-1.7460937 c 0.046875,-0.1640625 0.046875,-0.1875 0.046875,-0.2695313 0,-0.1875 -0.1523438,-0.3046875 -0.3164063,-0.3046875 -0.09375,0 -0.3632812,0.046875 -0.4570312,0.421875 l -0.46875,1.8984375 H 0.60960938 c -0.234375,0 -0.3515625,0 -0.3515625,0.234375 0,0.1171875 0.09375,0.1171875 0.31640625,0.1171875 H 1.6408594 l -0.79687502,3.1523438 c -0.09375,0.421875 -0.12890625,0.5390625 -0.12890625,0.69140621 0,0.5625 0.39843747,1.078125 1.06640627,1.078125 1.2070312,0 1.8515625,-1.74609371 1.8515625,-1.82812501 0,-0.070312 -0.046875,-0.1054687 -0.1171875,-0.1054687 -0.023437,0 -0.070312,0 -0.09375,0.046875 -0.011719,0.011719 -0.023437,0.023437 -0.1054688,0.2109375 -0.2578125,0.59765621 -0.8085937,1.44140621 -1.5,1.44140621 -0.3632812,0 -0.3867187,-0.3046875 -0.3867187,-0.5625 0,-0.0117188 0,-0.24609375 0.035156,-0.38671871 z m 0,0"
       style="fill:#000000;fill-opacity:1;fill-rule:nonzero;stroke:none"
       aria-label="t"
       transform="matrix(1.3333333,0,0,1.3333333,310.82,241.18267)" />
    <path
       id="path39"
       d="M 0,0 V 18.78"
       style="fill:none;stroke:#bfbfbf;stroke-width:0.199;stroke-linecap:butt;stroke-linejoin:miter;stroke-miterlimit:10;stroke-dasharray:none;stroke-opacity:1"
       transform="matrix(1.3333333,0,0,-1.3333333,327.59067,248.69467)" />
    <path
       id="path40"
       d="m 8.5668906,-2.9055547 c 0,-1.1132812 0,-1.4414062 -0.2695312,-1.828125 -0.3515625,-0.46875 -0.9140625,-0.5390625 -1.3125,-0.5390625 -0.9960938,0 -1.5,0.7148438 -1.6875,1.1835938 -0.1640625,-0.9140625 -0.8085938,-1.1835938 -1.5703125,-1.1835938 -1.1601563,0 -1.6054688,0.9960938 -1.7109375,1.2304688 h -0.011719 v -1.2304688 l -1.61718747,0.1289063 v 0.3515625 c 0.80859377,0 0.90234377,0.082031 0.90234377,0.6679687 v 3.24609376 c 0,0.52734375 -0.1289063,0.52734375 -0.90234377,0.52734375 V 6.953125e-4 C 0.69189063,-0.02274219 1.3364219,-0.02274219 1.6762656,-0.02274219 c 0.3398438,0 0.984375,0 1.3007813,0.0234375025 V -0.35086719 c -0.7617188,0 -0.9140625,0 -0.9140625,-0.52734375 V -3.1047734 c 0,-1.2539063 0.8320312,-1.921875 1.5703125,-1.921875 0.7382812,0 0.9140625,0.609375 0.9140625,1.3359375 v 2.81249996 c 0,0.52734375 -0.140625,0.52734375 -0.9140625,0.52734375 V 6.953125e-4 C 3.9497031,-0.02274219 4.5942344,-0.02274219 4.9223594,-0.02274219 c 0.3515625,0 0.9960937,0 1.3007812,0.0234375025 V -0.35086719 c -0.7617187,0 -0.9023437,0 -0.9023437,-0.52734375 V -3.1047734 c 0,-1.2539063 0.8203125,-1.921875 1.5703125,-1.921875 0.7382812,0 0.9023437,0.609375 0.9023437,1.3359375 v 2.81249996 c 0,0.52734375 -0.1289062,0.52734375 -0.9023437,0.52734375 V 6.953125e-4 C 7.1957969,-0.02274219 7.8403281,-0.02274219 8.1801719,-0.02274219 c 0.3398437,0 0.984375,0 1.3007812,0.0234375025 V -0.35086719 c -0.5976562,0 -0.9023437,0 -0.9140625,-0.3515625 z m 3.2636724,-4.453125 c 0,-0.3164062 -0.246094,-0.5859375 -0.574219,-0.5859375 -0.316406,0 -0.574219,0.2460938 -0.574219,0.5742188 0,0.3515625 0.28125,0.5859375 0.574219,0.5859375 0.363281,0 0.574219,-0.3164063 0.574219,-0.5742188 z m -1.640625,2.2148438 v 0.3515625 c 0.761718,0 0.867187,0.070312 0.867187,0.65625 v 3.25781246 c 0,0.52734375 -0.128906,0.52734375 -0.902344,0.52734375 V 6.953125e-4 C 10.482906,-0.02274219 11.057125,-0.02274219 11.408688,-0.02274219 c 0.128906,0 0.820312,0 1.230468,0.0234375025 V -0.35086719 c -0.773437,0 -0.832031,-0.0585938 -0.832031,-0.515625 V -5.2727422 Z m 8.138671,2.2382812 c 0,-1.1132812 0,-1.4414062 -0.28125,-1.828125 -0.339843,-0.46875 -0.902343,-0.5390625 -1.3125,-0.5390625 -1.160156,0 -1.605468,0.9960938 -1.710937,1.2304688 h -0.01172 v -1.2304688 l -1.617187,0.1289063 v 0.3515625 c 0.808593,0 0.902343,0.082031 0.902343,0.6679687 v 3.24609376 c 0,0.52734375 -0.128906,0.52734375 -0.902343,0.52734375 V 6.953125e-4 C 13.699703,-0.02274219 14.344234,-0.02274219 14.684078,-0.02274219 c 0.339844,0 0.984375,0 1.300781,0.0234375025 V -0.35086719 c -0.761718,0 -0.914062,0 -0.914062,-0.52734375 V -3.1047734 c 0,-1.2539063 0.832031,-1.921875 1.570312,-1.921875 0.738282,0 0.914063,0.609375 0.914063,1.3359375 v 2.81249996 c 0,0.52734375 -0.140625,0.52734375 -0.914063,0.52734375 V 6.953125e-4 C 16.957516,-0.02274219 17.602047,-0.02274219 17.930172,-0.02274219 c 0.351562,0 0.996094,0 1.300781,0.0234375025 V -0.35086719 c -0.597656,0 -0.890625,0 -0.902344,-0.3515625 z m 0,0"
       style="fill:#000000;fill-opacity:1;fill-rule:nonzero;stroke:none"
       aria-label="min"
       transform="matrix(1.3333333,0,0,1.3333333,335.69467,241.18267)" />
    <path
       id="path41"
       d="M 0,0 V 18.78"
       style="fill:none;stroke:#bfbfbf;stroke-width:0.199;stroke-linecap:butt;stroke-linejoin:miter;stroke-miterlimit:10;stroke-dasharray:none;stroke-opacity:1"
       transform="matrix(1.3333333,0,0,-1.3333333,369.81067,248.69467)" />
    <path
       id="path42"
       d="m 3.4458359,-7.6633672 c 0,-0.2695312 0,-0.28125 -0.2460937,-0.28125 -0.28125,0.3164063 -0.8789063,0.7617188 -2.109375,0.7617188 v 0.3515625 c 0.2695312,0 0.8671875,0 1.5234375,-0.3164063 v 6.22265626 c 0,0.43359375 -0.035156,0.57421875 -1.078125,0.57421875 h -0.375 V 6.953125e-4 c 0.3164062,-0.0234375025 1.4765625,-0.0234375025 1.875,-0.0234375025 0.3984375,0 1.546875,0 1.8632812,0.0234375025 V -0.35086719 H 4.5356797 c -1.0546875,0 -1.0898438,-0.140625 -1.0898438,-0.57421875 z m 3.9433594,0.8203125 c 0.5039063,0.1640625 0.9257813,0.1757813 1.0546875,0.1757813 1.359375,0 2.2148442,-0.9960938 2.2148442,-1.1601563 0,-0.046875 -0.02344,-0.1054687 -0.09375,-0.1054687 -0.02344,0 -0.04687,0 -0.152344,0.046875 -0.6679689,0.28125 -1.2421877,0.3164062 -1.5585939,0.3164062 -0.7851563,0 -1.3476563,-0.234375 -1.5820313,-0.328125 -0.082031,-0.035156 -0.1054687,-0.035156 -0.1171875,-0.035156 -0.09375,0 -0.09375,0.070312 -0.09375,0.2578125 v 3.5507812 c 0,0.2109375 0,0.2929688 0.140625,0.2929688 0.058594,0 0.070312,-0.011719 0.1992188,-0.1640625 0.328125,-0.4921875 0.890625,-0.7734375 1.4882812,-0.7734375 0.6328125,0 0.9492188,0.5859375 1.0429688,0.7851562 0.1992189,0.46875 0.2109379,1.0546875 0.2109379,1.5117188 0,0.4570312 0,1.1367187 -0.3281254,1.67578121 -0.2695313,0.421875 -0.7382813,0.7265625 -1.2539063,0.7265625 -0.796875,0 -1.5703125,-0.5390625 -1.78125,-1.40625001 0.058594,0.023437 0.1289063,0.035156 0.1875,0.035156 0.1992188,0 0.5273438,-0.1289063 0.5273438,-0.5273438 0,-0.3398437 -0.234375,-0.5273437 -0.5273438,-0.5273437 -0.2109375,0 -0.5273437,0.1054687 -0.5273437,0.5742187 0,1.00781251 0.8085937,2.16796876 2.1445312,2.16796876 1.3476563,0 2.5312502,-1.125 2.5312502,-2.64843746 0,-1.4179688 -0.960938,-2.6015625 -2.2148439,-2.6015625 -0.6796875,0 -1.2070313,0.2929687 -1.5117188,0.6328125 z m 0,0"
       style="fill:#000000;fill-opacity:1;fill-rule:nonzero;stroke:none"
       aria-label="15"
       transform="matrix(1.3333333,0,0,1.3333333,380.08133,241.18267)" />
    <path
       id="path43"
       d="M 0,0 V 18.78"
       style="fill:none;stroke:#bfbfbf;stroke-width:0.199;stroke-linecap:butt;stroke-linejoin:miter;stroke-miterlimit:10;stroke-dasharray:none;stroke-opacity:1"
       transform="matrix(1.3333333,0,0,-1.3333333,405.96,248.69467)" />
    <path
       id="path44"
       d="m 1.4646953,-4.1594609 c 0,-3.0234375 1.4765625,-3.5039063 2.1210938,-3.5039063 0.4335937,0 0.8554687,0.1289063 1.0898437,0.4921875 -0.140625,0 -0.5976562,0 -0.5976562,0.4921875 0,0.2578125 0.1757812,0.4921875 0.4921875,0.4921875 0.2929687,0 0.4921875,-0.1875 0.4921875,-0.5273437 0,-0.6210938 -0.4453125,-1.2304688 -1.4882813,-1.2304688 -1.5117187,0 -3.08203124,1.5351563 -3.08203124,4.171875 0,3.28125001 1.42968754,4.01953126 2.44921874,4.01953126 1.3007813,0 2.4140625,-1.125 2.4140625,-2.68359376 0,-1.59375 -1.1132812,-2.6601562 -2.3085937,-2.6601562 -1.0664063,0 -1.453125,0.9257812 -1.5820313,1.265625 z m 1.4765625,4.08984371 c -0.75,0 -1.1132812,-0.66796875 -1.21875,-0.92578125 C 1.6170391,-1.3000859 1.4998516,-1.8860234 1.4998516,-2.7297734 c 0,-0.9375 0.421875,-2.1210938 1.5,-2.1210938 0.65625,0 1.0078125,0.4453125 1.1835937,0.84375 0.1875,0.4453125 0.1875,1.0429688 0.1875,1.5585938 0,0.609375 0,1.1484375 -0.2226562,1.60546871 -0.3046875,0.57421875 -0.7265625,0.7734375 -1.2070313,0.7734375 z M 11.208836,-3.8196172 c 0,-0.9960937 -0.05859,-1.96875 -0.492188,-2.8710937 -0.492187,-0.9960938 -1.3476558,-1.2539063 -1.9335933,-1.2539063 -0.6914063,0 -1.546875,0.3398438 -1.9804688,1.3359375 -0.3398437,0.75 -0.4570312,1.4882813 -0.4570312,2.7890625 0,1.1601563 0.082031,2.0273438 0.515625,2.87109376 0.4570312,0.9140625 1.2890625,1.1953125 1.9101562,1.1953125 1.0429688,0 1.6406251,-0.62109375 1.9804691,-1.31249996 0.433593,-0.890625 0.457031,-2.0625 0.457031,-2.7539063 z M 8.7713359,0.01241406 c -0.3867187,0 -1.1601562,-0.2109375 -1.3828125,-1.52343746 -0.140625,-0.7148438 -0.140625,-1.6171875 -0.140625,-2.4609375 0,-0.9726563 0,-1.8632813 0.1992188,-2.5664063 0.1992187,-0.796875 0.8085937,-1.171875 1.3242187,-1.171875 0.4570313,0 1.1484375,0.28125 1.3710941,1.3007813 0.152343,0.6796875 0.152343,1.6289062 0.152343,2.4375 0,0.8085937 0,1.7109375 -0.128906,2.4375 -0.2226561,1.32421871 -0.9726561,1.54687496 -1.3945311,1.54687496 z m 0,0"
       style="fill:#000000;fill-opacity:1;fill-rule:nonzero;stroke:none"
       aria-label="60"
       transform="matrix(1.3333333,0,0,1.3333333,416.23067,241.18267)" />
    <path
       id="path45"
       d="M 0,0 V 18.78"
       style="fill:none;stroke:#bfbfbf;stroke-width:0.199;stroke-linecap:butt;stroke-linejoin:miter;stroke-miterlimit:10;stroke-dasharray:none;stroke-opacity:1"
       transform="matrix(1.3333333,0,0,-1.3333333,442.10933,248.69467)" />
    <path
       id="path46"
       d="m 3.4445156,-7.6633672 c 0,-0.2695312 0,-0.28125 -0.2460937,-0.28125 -0.28125,0.3164063 -0.8789063,0.7617188 -2.109375,0.7617188 v 0.3515625 c 0.2695312,0 0.8671875,0 1.5234375,-0.3164063 v 6.22265626 c 0,0.43359375 -0.035156,0.57421875 -1.078125,0.57421875 h -0.375 V 6.953125e-4 c 0.3164062,-0.0234375025 1.4765625,-0.0234375025 1.875,-0.0234375025 0.3984375,0 1.546875,0 1.8632812,0.0234375025 V -0.35086719 H 4.5343594 c -1.0546875,0 -1.0898438,-0.140625 -1.0898438,-0.57421875 z m 4.6113281,3.375 c -0.2109375,0.011719 -0.2578125,0.023437 -0.2578125,0.1289063 0,0.1171875 0.058594,0.1171875 0.28125,0.1171875 h 0.5507813 c 1.0078125,0 1.4648435,0.84375 1.4648435,1.9921875 0,1.55859371 -0.8085935,1.98046871 -1.394531,1.98046871 -0.5742188,0 -1.5585938,-0.28125 -1.8984375,-1.06640621 0.375,0.058594 0.7265625,-0.1523438 0.7265625,-0.5859375 0,-0.3398438 -0.2578125,-0.5859375 -0.5859375,-0.5859375 -0.2929688,0 -0.5976563,0.1640625 -0.5976563,0.6210937 0,1.06640626 1.0664063,1.93359376 2.390625,1.93359376 1.4179688,0 2.4726558,-1.078125 2.4726558,-2.28515626 0,-1.1015625 -0.890625,-1.96875 -2.0273433,-2.1679687 1.0312503,-0.3046875 1.6992183,-1.171875 1.6992183,-2.109375 0,-0.9375 -0.9726558,-1.6289063 -2.132812,-1.6289063 -1.1953125,0 -2.0859375,0.7265625 -2.0859375,1.59375 0,0.4804688 0.375,0.5742188 0.5507812,0.5742188 0.2578125,0 0.5390625,-0.1757813 0.5390625,-0.5390625 0,-0.375 -0.28125,-0.5390625 -0.5507812,-0.5390625 -0.070312,0 -0.09375,0 -0.1289063,0.011719 C 7.5285,-7.6633672 8.6535,-7.6633672 8.7120937,-7.6633672 c 0.3867188,0 1.171875,0.1757813 1.171875,1.3476563 0,0.234375 -0.035156,0.9023437 -0.3867187,1.4179687 -0.3515625,0.5273438 -0.7617188,0.5625 -1.0898438,0.5742188 z m 5.1855473,-2.5546875 c 0.503906,0.1640625 0.925781,0.1757813 1.054687,0.1757813 1.359375,0 2.214844,-0.9960938 2.214844,-1.1601563 0,-0.046875 -0.02344,-0.1054687 -0.09375,-0.1054687 -0.02344,0 -0.04687,0 -0.152344,0.046875 -0.667969,0.28125 -1.242187,0.3164062 -1.558594,0.3164062 -0.785156,0 -1.347656,-0.234375 -1.582031,-0.328125 -0.08203,-0.035156 -0.105469,-0.035156 -0.117187,-0.035156 -0.09375,0 -0.09375,0.070312 -0.09375,0.2578125 v 3.5507812 c 0,0.2109375 0,0.2929688 0.140625,0.2929688 0.05859,0 0.07031,-0.011719 0.199218,-0.1640625 0.328125,-0.4921875 0.890625,-0.7734375 1.488282,-0.7734375 0.632812,0 0.949218,0.5859375 1.042968,0.7851562 0.199219,0.46875 0.210938,1.0546875 0.210938,1.5117188 0,0.4570312 0,1.1367187 -0.328125,1.67578121 -0.269531,0.421875 -0.738281,0.7265625 -1.253906,0.7265625 -0.796875,0 -1.570313,-0.5390625 -1.78125,-1.40625001 0.05859,0.023437 0.128906,0.035156 0.1875,0.035156 0.199218,0 0.527343,-0.1289063 0.527343,-0.5273438 0,-0.3398437 -0.234375,-0.5273437 -0.527343,-0.5273437 -0.210938,0 -0.527344,0.1054687 -0.527344,0.5742187 0,1.00781251 0.808594,2.16796876 2.144531,2.16796876 1.347656,0 2.53125,-1.125 2.53125,-2.64843746 0,-1.4179688 -0.960937,-2.6015625 -2.214844,-2.6015625 -0.679687,0 -1.207031,0.2929687 -1.511718,0.6328125 z m 0,0"
       style="fill:#000000;fill-opacity:1;fill-rule:nonzero;stroke:none"
       aria-label="135"
       transform="matrix(1.3333333,0,0,1.3333333,450.212,241.18267)" />
    <path
       id="path47"
       d="M 0,0 V 18.78"
       style="fill:none;stroke:#bfbfbf;stroke-width:0.199;stroke-linecap:butt;stroke-linejoin:miter;stroke-miterlimit:10;stroke-dasharray:none;stroke-opacity:1"
       transform="matrix(1.3333333,0,0,-1.3333333,481.72667,248.69467)" />
    <path
       id="path48"
       d="M 5.2627422,-2.0032109 H 4.9932109 c -0.035156,0.1992187 -0.1289062,0.8554687 -0.2460937,1.04296871 -0.082031,0.1171875 -0.7617188,0.1171875 -1.125,0.1171875 H 1.4072734 c 0.328125,-0.28125001 1.0546875,-1.04296871 1.3710938,-1.33593751 1.8164062,-1.6640625 2.484375,-2.2851562 2.484375,-3.46875 0,-1.3828125 -1.0898438,-2.296875 -2.4726563,-2.296875 -1.3945312,0 -2.20312496,1.1835938 -2.20312496,2.203125 0,0.609375 0.52734376,0.609375 0.56249996,0.609375 0.2460938,0 0.5625,-0.1757812 0.5625,-0.5625 0,-0.328125 -0.234375,-0.5507812 -0.5625,-0.5507812 -0.1054687,0 -0.1289062,0 -0.16406246,0.011719 0.22265626,-0.8203125 0.86718746,-1.3710937 1.64062496,-1.3710937 1.0195313,0 1.640625,0.8554687 1.640625,1.9570312 0,1.0078125 -0.5859375,1.8984375 -1.265625,2.6601563 L 0.58696094,-0.28055469 V 6.953125e-4 H 4.9463359 Z m 4.9042968,-5.7773438 c 0,-0.2226562 0,-0.2929687 -0.164062,-0.2929687 -0.09375,0 -0.1289067,0 -0.2226567,0.1523437 l -3.5976562,5.578125 v 0.3515625 h 3.140625 v 1.07812501 c 0,0.4453125 -0.023437,0.5625 -0.9023438,0.5625 H 8.1865703 V 6.953125e-4 C 8.4561016,-0.02274219 9.4053203,-0.02274219 9.7451641,-0.02274219 c 0.3281249,0 1.2890629,0 1.5585939,0.0234375025 V -0.35086719 h -0.234375 c -0.867188,0 -0.902344,-0.1171875 -0.902344,-0.5625 V -1.9914922 h 1.207031 v -0.3515625 h -1.207031 z m -0.7851562,0.9375 v 4.5 h -2.90625 z m 7.6787112,3.0234375 c 0,-0.9960937 -0.05859,-1.96875 -0.492188,-2.8710937 -0.492187,-0.9960938 -1.347656,-1.2539063 -1.933593,-1.2539063 -0.691407,0 -1.546875,0.3398438 -1.980469,1.3359375 -0.339844,0.75 -0.457031,1.4882813 -0.457031,2.7890625 0,1.1601563 0.08203,2.0273438 0.515625,2.87109376 0.457031,0.9140625 1.289062,1.1953125 1.910156,1.1953125 1.042969,0 1.640625,-0.62109375 1.980469,-1.31249996 0.433593,-0.890625 0.457031,-2.0625 0.457031,-2.7539063 z m -2.4375,3.83203126 c -0.386719,0 -1.160156,-0.2109375 -1.382813,-1.52343746 -0.140625,-0.7148438 -0.140625,-1.6171875 -0.140625,-2.4609375 0,-0.9726563 0,-1.8632813 0.199219,-2.5664063 0.199219,-0.796875 0.808594,-1.171875 1.324219,-1.171875 0.457031,0 1.148437,0.28125 1.371094,1.3007813 0.152343,0.6796875 0.152343,1.6289062 0.152343,2.4375 0,0.8085937 0,1.7109375 -0.128906,2.4375 -0.222656,1.32421871 -0.972656,1.54687496 -1.394531,1.54687496 z m 0,0"
       style="fill:#000000;fill-opacity:1;fill-rule:nonzero;stroke:none"
       aria-label="240"
       transform="matrix(1.3333333,0,0,1.3333333,489.83067,241.18267)" />
    <path
       id="path49"
       d="M 0,0 V 18.78"
       style="fill:none;stroke:#bfbfbf;stroke-width:0.199;stroke-linecap:butt;stroke-linejoin:miter;stroke-miterlimit:10;stroke-dasharray:none;stroke-opacity:1"
       transform="matrix(1.3333333,0,0,-1.3333333,521.34533,248.69467)" />
    <path
       id="path50"
       d="M 0,0 H 241.731"
       style="fill:none;stroke:#bfbfbf;stroke-width:0.199;stroke-linecap:butt;stroke-linejoin:miter;stroke-miterlimit:10;stroke-dasharray:none;stroke-opacity:1"
       transform="matrix(1.3333333,0,0,-1.3333333,235.05333,248.82667)" />
    <path
       id="path51"
       d="m 3.4448672,-7.6638516 c 0,-0.2695312 0,-0.28125 -0.2460938,-0.28125 -0.28125,0.3164063 -0.8789062,0.7617188 -2.109375,0.7617188 v 0.3515625 c 0.2695313,0 0.8671875,0 1.5234375,-0.3164063 v 6.22265629 c 0,0.43359375 -0.035156,0.57421875 -1.078125,0.57421875 h -0.375 V 2.109375e-4 c 0.3164063,-0.0234374975 1.4765625,-0.0234374975 1.875,-0.0234374975 0.3984375,0 1.546875,0 1.8632813,0.0234374975 V -0.35135156 H 4.5347109 c -1.0546875,0 -1.0898437,-0.140625 -1.0898437,-0.57421875 z m 7.7636718,3.84375 c 0,-0.9960937 -0.05859,-1.96875 -0.492187,-2.8710937 -0.492188,-0.9960938 -1.3476567,-1.2539063 -1.9335942,-1.2539063 -0.6914062,0 -1.546875,0.3398438 -1.9804687,1.3359375 -0.3398438,0.75 -0.4570313,1.4882813 -0.4570313,2.7890625 0,1.1601563 0.082031,2.0273438 0.515625,2.87109379 0.4570313,0.9140625 1.2890625,1.1953125 1.9101563,1.1953125 1.0429687,0 1.6406249,-0.62109375 1.9804689,-1.31249999 0.433594,-0.890625 0.457031,-2.0625 0.457031,-2.7539063 z M 8.7710391,0.01192969 c -0.3867188,0 -1.1601563,-0.2109375 -1.3828125,-1.52343749 -0.140625,-0.7148438 -0.140625,-1.6171875 -0.140625,-2.4609375 0,-0.9726563 0,-1.8632813 0.1992187,-2.5664063 0.1992188,-0.796875 0.8085938,-1.171875 1.3242188,-1.171875 0.4570312,0 1.1484375,0.28125 1.3710939,1.3007813 0.152344,0.6796875 0.152344,1.6289062 0.152344,2.4375 0,0.8085937 0,1.7109375 -0.128907,2.4375 C 9.9429141,-0.21072656 9.1929141,0.01192969 8.7710391,0.01192969 Z M 22.221234,-2.9060391 c 0,-1.1132812 0,-1.4414062 -0.269531,-1.828125 -0.351562,-0.46875 -0.914062,-0.5390625 -1.3125,-0.5390625 -0.996094,0 -1.5,0.7148438 -1.6875,1.1835938 -0.164062,-0.9140625 -0.808594,-1.1835938 -1.570312,-1.1835938 -1.160157,0 -1.605469,0.9960938 -1.710938,1.2304688 h -0.01172 v -1.2304688 l -1.617187,0.1289063 v 0.3515625 c 0.808594,0 0.902344,0.082031 0.902344,0.6679687 v 3.24609379 c 0,0.52734375 -0.128907,0.52734375 -0.902344,0.52734375 V 2.109375e-4 c 0.304688,-0.0234374975 0.94922,-0.0234374975 1.289063,-0.0234374975 0.339844,0 0.984375,0 1.300782,0.0234374975 V -0.35135156 c -0.761719,0 -0.914063,0 -0.914063,-0.52734375 V -3.1052578 c 0,-1.2539063 0.832031,-1.921875 1.570313,-1.921875 0.738281,0 0.914062,0.609375 0.914062,1.3359375 v 2.81249999 c 0,0.52734375 -0.140625,0.52734375 -0.914062,0.52734375 V 2.109375e-4 C 17.604047,-0.02322656 18.248578,-0.02322656 18.576703,-0.02322656 c 0.351563,0 0.996094,0 1.300781,0.0234374975 V -0.35135156 c -0.761718,0 -0.902343,0 -0.902343,-0.52734375 V -3.1052578 c 0,-1.2539063 0.820312,-1.921875 1.570312,-1.921875 0.738281,0 0.902344,0.609375 0.902344,1.3359375 v 2.81249999 c 0,0.52734375 -0.128906,0.52734375 -0.902344,0.52734375 V 2.109375e-4 C 20.850141,-0.02322656 21.494672,-0.02322656 21.834516,-0.02322656 c 0.339843,0 0.984375,0 1.300781,0.0234374975 V -0.35135156 c -0.597656,0 -0.902344,0 -0.914063,-0.3515625 z m 9.75586,0 c 0,-1.1132812 0,-1.4414062 -0.269532,-1.828125 -0.351562,-0.46875 -0.914062,-0.5390625 -1.3125,-0.5390625 -0.996093,0 -1.5,0.7148438 -1.6875,1.1835938 -0.164062,-0.9140625 -0.808593,-1.1835938 -1.570312,-1.1835938 -1.160156,0 -1.605469,0.9960938 -1.710938,1.2304688 h -0.01172 v -1.2304688 l -1.617188,0.1289063 v 0.3515625 c 0.808594,0 0.902344,0.082031 0.902344,0.6679687 v 3.24609379 c 0,0.52734375 -0.128906,0.52734375 -0.902344,0.52734375 V 2.109375e-4 c 0.30469,-0.0234374975 0.949221,-0.0234374975 1.289065,-0.0234374975 0.339843,0 0.984375,0 1.300781,0.0234374975 V -0.35135156 c -0.761719,0 -0.914063,0 -0.914063,-0.52734375 V -3.1052578 c 0,-1.2539063 0.832032,-1.921875 1.570313,-1.921875 0.738281,0 0.914062,0.609375 0.914062,1.3359375 v 2.81249999 c 0,0.52734375 -0.140625,0.52734375 -0.914062,0.52734375 V 2.109375e-4 C 27.359906,-0.02322656 28.004437,-0.02322656 28.332562,-0.02322656 c 0.351563,0 0.996094,0 1.300782,0.0234374975 V -0.35135156 c -0.761719,0 -0.902344,0 -0.902344,-0.52734375 V -3.1052578 c 0,-1.2539063 0.820312,-1.921875 1.570312,-1.921875 0.738282,0 0.902344,0.609375 0.902344,1.3359375 v 2.81249999 c 0,0.52734375 -0.128906,0.52734375 -0.902344,0.52734375 V 2.109375e-4 C 30.606,-0.02322656 31.250531,-0.02322656 31.590375,-0.02322656 c 0.339844,0 0.984375,0 1.300781,0.0234374975 V -0.35135156 c -0.597656,0 -0.902344,0 -0.914062,-0.3515625 z m 0,0"
       style="fill:#000000;fill-opacity:1;fill-rule:nonzero;stroke:none"
       aria-label="10mm"
       transform="matrix(1.3333333,0,0,1.3333333,245.192,266.488)" />
    <path
       id="path52"
       d="M 0,0 V 18.78"
       style="fill:none;stroke:#bfbfbf;stroke-width:0.199;stroke-linecap:butt;stroke-linejoin:miter;stroke-miterlimit:10;stroke-dasharray:none;stroke-opacity:1"
       transform="matrix(1.3333333,0,0,-1.3333333,299.68533,274)" />
    <path
       id="path53"
       d="m 6.8093906,-2.7536953 c 0,1.6757812 -1.125,2.66015624 -2.25,2.66015624 -0.7265625,0 -1.96875,-0.48046875 -1.96875,-2.56640624 v -4.59375 c 0,-0.4453125 0.035156,-0.5625 0.9023438,-0.5625 h 0.234375 v -0.3515625 c -0.28125,0.023437 -1.265625,0.023437 -1.6054688,0.023437 -0.3632812,0 -1.34765623,0 -1.62890623,-0.023437 v 0.3515625 h 0.234375 c 0.86718753,0 0.90234373,0.1171875 0.90234373,0.5625 v 4.5117187 c 0,1.734375 1.3828125,2.98828129 2.90625,2.98828129 1.6523438,0 2.6015625,-1.61718749 2.6015625,-2.81249999 v -4.5234375 c 0,-0.7265625 0.9140625,-0.7265625 1.1367188,-0.7265625 v -0.3515625 c -0.3164063,0.023437 -0.9609375,0.023437 -1.2890625,0.023437 -0.3515625,0 -0.9960938,0 -1.3007813,-0.023437 v 0.3515625 c 1.125,0 1.125,0.5625 1.125,0.8789062 z m 0,0"
       style="fill:#000000;fill-opacity:1;fill-rule:nonzero;stroke:none"
       aria-label="U"
       transform="matrix(1.3333333,0,0,1.3333333,307.788,266.488)" />
    <path
       id="path54"
       d="M 0,0 V 18.78"
       style="fill:none;stroke:#bfbfbf;stroke-width:0.199;stroke-linecap:butt;stroke-linejoin:miter;stroke-miterlimit:10;stroke-dasharray:none;stroke-opacity:1"
       transform="matrix(1.3333333,0,0,-1.3333333,327.59067,274)" />
    <path
       id="path55"
       d="m 3.4439688,-7.6638516 c 0,-0.2695312 0,-0.28125 -0.2460938,-0.28125 -0.28125,0.3164063 -0.8789062,0.7617188 -2.109375,0.7617188 v 0.3515625 c 0.2695313,0 0.8671875,0 1.5234375,-0.3164063 v 6.22265629 c 0,0.43359375 -0.035156,0.57421875 -1.078125,0.57421875 h -0.375 V 2.109375e-4 C 1.4752188,-0.02322656 2.635375,-0.02322656 3.0338125,-0.02322656 c 0.3984375,0 1.546875,0 1.8632813,0.0234374975 V -0.35135156 H 4.5338125 c -1.0546875,0 -1.0898437,-0.140625 -1.0898437,-0.57421875 z m 0,0"
       style="fill:#000000;fill-opacity:1;fill-rule:nonzero;stroke:none"
       aria-label="1"
       transform="matrix(1.3333333,0,0,1.3333333,344.79867,266.488)" />
    <path
       id="path56"
       d="M 0,0 V 18.78"
       style="fill:none;stroke:#bfbfbf;stroke-width:0.199;stroke-linecap:butt;stroke-linejoin:miter;stroke-miterlimit:10;stroke-dasharray:none;stroke-opacity:1"
       transform="matrix(1.3333333,0,0,-1.3333333,369.81067,274)" />
    <path
       id="path57"
       d="m 5.3560156,-3.8201016 c 0,-0.9960937 -0.058594,-1.96875 -0.4921875,-2.8710937 -0.4921875,-0.9960938 -1.3476562,-1.2539063 -1.9335937,-1.2539063 -0.6914063,0 -1.546875,0.3398438 -1.98046877,1.3359375 -0.33984375,0.75 -0.45703125,1.4882813 -0.45703125,2.7890625 0,1.1601563 0.0820313,2.0273438 0.51562502,2.87109379 0.4570312,0.9140625 1.2890625,1.1953125 1.9101562,1.1953125 1.0429688,0 1.640625,-0.62109375 1.9804688,-1.31249999 0.4335937,-0.890625 0.4570312,-2.0625 0.4570312,-2.7539063 z m -2.4375,3.83203129 c -0.3867187,0 -1.1601562,-0.2109375 -1.3828125,-1.52343749 -0.140625,-0.7148438 -0.140625,-1.6171875 -0.140625,-2.4609375 0,-0.9726563 0,-1.8632813 0.1992188,-2.5664063 0.1992187,-0.796875 0.8085937,-1.171875 1.3242187,-1.171875 0.4570313,0 1.1484375,0.28125 1.3710938,1.3007813 0.1523437,0.6796875 0.1523437,1.6289062 0.1523437,2.4375 0,0.8085937 0,1.7109375 -0.1289062,2.4375 -0.2226563,1.32421874 -0.9726563,1.54687499 -1.3945313,1.54687499 z m 5.2675782,0.03515625 c 0,-0.73828125 -0.2578125,-1.20703124 -0.7148438,-1.20703124 -0.3515625,0 -0.5742187,0.25781249 -0.5742187,0.57421874 0,0.328125 0.2226562,0.5859374975 0.5859375,0.5859374975 0.1757812,0 0.3046875,-0.0820312475 0.375,-0.1406249975 0.035156,-0.0351563 0.046875,-0.0351563 0.058594,-0.0351563 0.035156,0 0.035156,0.1640625 0.035156,0.22265625 0,0.76171875 -0.3164063,1.48828121 -0.84375,2.02734381 -0.046875,0.046875 -0.058594,0.070312 -0.058594,0.1171875 0,0.058594 0.058594,0.1171875 0.1171875,0.1171875 0.1054688,0 1.0195313,-0.8906251 1.0195315,-2.26171876 z M 12.551328,-7.6638516 c 0,-0.2695312 0,-0.28125 -0.246094,-0.28125 -0.28125,0.3164063 -0.878906,0.7617188 -2.109375,0.7617188 v 0.3515625 c 0.269532,0 0.867188,0 1.523438,-0.3164063 v 6.22265629 c 0,0.43359375 -0.03516,0.57421875 -1.078125,0.57421875 h -0.375 V 2.109375e-4 c 0.316406,-0.0234374975 1.476562,-0.0234374975 1.875,-0.0234374975 0.398437,0 1.546875,0 1.863281,0.0234374975 V -0.35135156 h -0.363281 c -1.054688,0 -1.089844,-0.140625 -1.089844,-0.57421875 z m 0,0"
       style="fill:#000000;fill-opacity:1;fill-rule:nonzero;stroke:none"
       aria-label="0,1"
       transform="matrix(1.3333333,0,0,1.3333333,377.91333,266.488)" />
    <path
       id="path58"
       d="M 0,0 V 18.78"
       style="fill:none;stroke:#bfbfbf;stroke-width:0.199;stroke-linecap:butt;stroke-linejoin:miter;stroke-miterlimit:10;stroke-dasharray:none;stroke-opacity:1"
       transform="matrix(1.3333333,0,0,-1.3333333,405.96,274)" />
    <path
       id="path59"
       d="m 5.3553437,-3.8201016 c 0,-0.9960937 -0.058594,-1.96875 -0.4921875,-2.8710937 C 4.3709687,-7.6872891 3.5155,-7.9451016 2.9295625,-7.9451016 c -0.6914063,0 -1.546875,0.3398438 -1.98046875,1.3359375 -0.33984375,0.75 -0.45703125,1.4882813 -0.45703125,2.7890625 0,1.1601563 0.0820312,2.0273438 0.515625,2.87109379 0.4570312,0.9140625 1.2890625,1.1953125 1.9101562,1.1953125 1.0429688,0 1.640625,-0.62109375 1.9804688,-1.31249999 0.4335937,-0.890625 0.4570312,-2.0625 0.4570312,-2.7539063 z m -2.4375,3.83203129 c -0.3867187,0 -1.1601562,-0.2109375 -1.3828125,-1.52343749 -0.140625,-0.7148438 -0.140625,-1.6171875 -0.140625,-2.4609375 0,-0.9726563 0,-1.8632813 0.1992188,-2.5664063 0.1992187,-0.796875 0.8085937,-1.171875 1.3242187,-1.171875 0.4570313,0 1.1484375,0.28125 1.3710938,1.3007813 0.1523437,0.6796875 0.1523437,1.6289062 0.1523437,2.4375 0,0.8085937 0,1.7109375 -0.1289062,2.4375 -0.2226563,1.32421874 -0.9726563,1.54687499 -1.3945313,1.54687499 z m 5.2675782,0.03515625 c 0,-0.73828125 -0.2578125,-1.20703124 -0.7148438,-1.20703124 -0.3515625,0 -0.5742187,0.25781249 -0.5742187,0.57421874 0,0.328125 0.2226562,0.5859374975 0.5859375,0.5859374975 0.1757812,0 0.3046875,-0.0820312475 0.375,-0.1406249975 0.035156,-0.0351563 0.046875,-0.0351563 0.058594,-0.0351563 0.035156,0 0.035156,0.1640625 0.035156,0.22265625 0,0.76171875 -0.3164063,1.48828121 -0.84375,2.02734381 -0.046875,0.046875 -0.058594,0.070312 -0.058594,0.1171875 0,0.058594 0.058594,0.1171875 0.1171875,0.1171875 0.1054688,0 1.0195313,-0.8906251 1.0195315,-2.26171876 z M 14.367062,-2.0036953 h -0.269531 c -0.03516,0.1992187 -0.128906,0.8554687 -0.246094,1.04296874 -0.08203,0.1171875 -0.761718,0.1171875 -1.125,0.1171875 h -2.214843 c 0.328125,-0.28125004 1.054687,-1.04296874 1.371093,-1.33593754 1.816407,-1.6640625 2.484375,-2.2851562 2.484375,-3.46875 0,-1.3828125 -1.089843,-2.296875 -2.472656,-2.296875 -1.394531,0 -2.2031248,1.1835938 -2.2031248,2.203125 0,0.609375 0.5273438,0.609375 0.5624998,0.609375 0.246094,0 0.5625,-0.1757812 0.5625,-0.5625 0,-0.328125 -0.234375,-0.5507812 -0.5625,-0.5507812 -0.105469,0 -0.128906,0 -0.164062,0.011719 0.222656,-0.8203125 0.867187,-1.3710937 1.640625,-1.3710937 1.019531,0 1.640625,0.8554687 1.640625,1.9570312 0,1.0078125 -0.585938,1.8984375 -1.265625,2.6601563 L 9.6912812,-0.28103906 V 2.109375e-4 h 4.3593748 z m 0,0"
       style="fill:#000000;fill-opacity:1;fill-rule:nonzero;stroke:none"
       aria-label="0,2"
       transform="matrix(1.3333333,0,0,1.3333333,414.06267,266.488)" />
    <path
       id="path60"
       d="M 0,0 V 18.78"
       style="fill:none;stroke:#bfbfbf;stroke-width:0.199;stroke-linecap:butt;stroke-linejoin:miter;stroke-miterlimit:10;stroke-dasharray:none;stroke-opacity:1"
       transform="matrix(1.3333333,0,0,-1.3333333,442.10933,274)" />
    <path
       id="path61"
       d="m 5.3544531,-3.8201016 c 0,-0.9960937 -0.058594,-1.96875 -0.4921875,-2.8710937 -0.4921875,-0.9960938 -1.3476562,-1.2539063 -1.9335937,-1.2539063 -0.6914063,0 -1.546875,0.3398438 -1.98046877,1.3359375 -0.33984375,0.75 -0.45703125,1.4882813 -0.45703125,2.7890625 0,1.1601563 0.0820313,2.0273438 0.51562502,2.87109379 0.4570312,0.9140625 1.2890625,1.1953125 1.9101562,1.1953125 1.0429688,0 1.640625,-0.62109375 1.9804688,-1.31249999 0.4335937,-0.890625 0.4570312,-2.0625 0.4570312,-2.7539063 z m -2.4375,3.83203129 c -0.3867187,0 -1.1601562,-0.2109375 -1.3828125,-1.52343749 -0.140625,-0.7148438 -0.140625,-1.6171875 -0.140625,-2.4609375 0,-0.9726563 0,-1.8632813 0.1992188,-2.5664063 0.1992187,-0.796875 0.8085937,-1.171875 1.3242187,-1.171875 0.4570313,0 1.1484375,0.28125 1.3710938,1.3007813 0.1523437,0.6796875 0.1523437,1.6289062 0.1523437,2.4375 0,0.8085937 0,1.7109375 -0.1289062,2.4375 -0.2226563,1.32421874 -0.9726563,1.54687499 -1.3945313,1.54687499 z m 5.2675782,0.03515625 c 0,-0.73828125 -0.2578125,-1.20703124 -0.7148438,-1.20703124 -0.3515625,0 -0.5742187,0.25781249 -0.5742187,0.57421874 0,0.328125 0.2226562,0.5859374975 0.5859375,0.5859374975 0.1757812,0 0.3046875,-0.0820312475 0.375,-0.1406249975 0.035156,-0.0351563 0.046875,-0.0351563 0.058594,-0.0351563 0.035156,0 0.035156,0.1640625 0.035156,0.22265625 0,0.76171875 -0.3164063,1.48828121 -0.84375,2.02734381 -0.046875,0.046875 -0.058594,0.070312 -0.058594,0.1171875 0,0.058594 0.058594,0.1171875 0.1171875,0.1171875 0.1054688,0 1.0195313,-0.8906251 1.0195315,-2.26171876 z M 11.307578,-4.2888516 c -0.210937,0.011719 -0.257812,0.023437 -0.257812,0.1289063 0,0.1171875 0.05859,0.1171875 0.28125,0.1171875 h 0.550781 c 1.007812,0 1.464844,0.84375 1.464844,1.9921875 0,1.55859374 -0.808594,1.98046874 -1.394532,1.98046874 -0.574218,0 -1.558593,-0.28125 -1.898437,-1.06640624 0.375,0.058594 0.726562,-0.1523438 0.726562,-0.5859375 0,-0.3398438 -0.257812,-0.5859375 -0.585937,-0.5859375 -0.2929689,0 -0.5976564,0.1640625 -0.5976564,0.6210937 0,1.06640629 1.0664064,1.93359379 2.3906254,1.93359379 1.417968,0 2.472656,-1.078125 2.472656,-2.28515629 0,-1.1015625 -0.890625,-1.96875 -2.027344,-2.1679687 1.03125,-0.3046875 1.699219,-1.171875 1.699219,-2.109375 0,-0.9375 -0.972656,-1.6289063 -2.132813,-1.6289063 -1.195312,0 -2.0859371,0.7265625 -2.0859371,1.59375 0,0.4804688 0.3750001,0.5742188 0.5507811,0.5742188 0.257813,0 0.539063,-0.1757813 0.539063,-0.5390625 0,-0.375 -0.28125,-0.5390625 -0.550782,-0.5390625 -0.07031,0 -0.09375,0 -0.128906,0.011719 0.457031,-0.8203125 1.582031,-0.8203125 1.640625,-0.8203125 0.386719,0 1.171875,0.1757813 1.171875,1.3476563 0,0.234375 -0.03516,0.9023437 -0.386719,1.4179687 -0.351562,0.5273438 -0.761718,0.5625 -1.089843,0.5742188 z m 0,0"
       style="fill:#000000;fill-opacity:1;fill-rule:nonzero;stroke:none"
       aria-label="0,3"
       transform="matrix(1.3333333,0,0,1.3333333,451.94667,266.488)" />
    <path
       id="path62"
       d="M 0,0 V 18.78"
       style="fill:none;stroke:#bfbfbf;stroke-width:0.199;stroke-linecap:butt;stroke-linejoin:miter;stroke-miterlimit:10;stroke-dasharray:none;stroke-opacity:1"
       transform="matrix(1.3333333,0,0,-1.3333333,481.72667,274)" />
    <path
       id="path63"
       d="m 5.3543437,-3.8201016 c 0,-0.9960937 -0.058594,-1.96875 -0.4921875,-2.8710937 C 4.3699687,-7.6872891 3.5145,-7.9451016 2.9285625,-7.9451016 c -0.6914063,0 -1.546875,0.3398438 -1.98046875,1.3359375 -0.33984375,0.75 -0.45703125,1.4882813 -0.45703125,2.7890625 0,1.1601563 0.0820312,2.0273438 0.515625,2.87109379 0.4570312,0.9140625 1.2890625,1.1953125 1.9101562,1.1953125 1.0429688,0 1.640625,-0.62109375 1.9804688,-1.31249999 0.4335937,-0.890625 0.4570312,-2.0625 0.4570312,-2.7539063 z m -2.4375,3.83203129 c -0.3867187,0 -1.1601562,-0.2109375 -1.3828125,-1.52343749 -0.140625,-0.7148438 -0.140625,-1.6171875 -0.140625,-2.4609375 0,-0.9726563 0,-1.8632813 0.1992188,-2.5664063 0.1992187,-0.796875 0.8085937,-1.171875 1.3242187,-1.171875 0.4570313,0 1.1484375,0.28125 1.3710938,1.3007813 0.1523437,0.6796875 0.1523437,1.6289062 0.1523437,2.4375 0,0.8085937 0,1.7109375 -0.1289062,2.4375 -0.2226563,1.32421874 -0.9726563,1.54687499 -1.3945313,1.54687499 z m 5.2675782,0.03515625 c 0,-0.73828125 -0.2578125,-1.20703124 -0.7148438,-1.20703124 -0.3515625,0 -0.5742187,0.25781249 -0.5742187,0.57421874 0,0.328125 0.2226562,0.5859374975 0.5859375,0.5859374975 0.1757812,0 0.3046875,-0.0820312475 0.375,-0.1406249975 0.035156,-0.0351563 0.046875,-0.0351563 0.058594,-0.0351563 0.035156,0 0.035156,0.1640625 0.035156,0.22265625 0,0.76171875 -0.3164063,1.48828121 -0.84375,2.02734381 -0.046875,0.046875 -0.058594,0.070312 -0.058594,0.1171875 0,0.058594 0.058594,0.1171875 0.1171875,0.1171875 0.1054688,0 1.0195313,-0.8906251 1.0195315,-2.26171876 z M 13.416844,-7.7810391 c 0,-0.2226562 0,-0.2929687 -0.164063,-0.2929687 -0.09375,0 -0.128906,0 -0.222656,0.1523437 l -3.5976563,5.578125 v 0.3515625 h 3.1406253 v 1.07812504 c 0,0.4453125 -0.02344,0.5625 -0.902344,0.5625 H 11.436375 V 2.109375e-4 c 0.269531,-0.0234374975 1.21875,-0.0234374975 1.558594,-0.0234374975 0.328125,0 1.289062,0 1.558593,0.0234374975 V -0.35135156 h -0.234375 c -0.867187,0 -0.902343,-0.1171875 -0.902343,-0.5625 V -1.9919766 h 1.207031 v -0.3515625 h -1.207031 z m -0.785157,0.9375 v 4.5 H 9.7254375 Z m 0,0"
       style="fill:#000000;fill-opacity:1;fill-rule:nonzero;stroke:none"
       aria-label="0,4"
       transform="matrix(1.3333333,0,0,1.3333333,491.564,266.488)" />
    <path
       id="path64"
       d="M 0,0 V 18.78"
       style="fill:none;stroke:#bfbfbf;stroke-width:0.199;stroke-linecap:butt;stroke-linejoin:miter;stroke-miterlimit:10;stroke-dasharray:none;stroke-opacity:1"
       transform="matrix(1.3333333,0,0,-1.3333333,521.34533,274)" />
    <path
       id="path65"
       d="M 0,0 H 241.731"
       style="fill:none;stroke:#bfbfbf;stroke-width:0.199;stroke-linecap:butt;stroke-linejoin:miter;stroke-miterlimit:10;stroke-dasharray:none;stroke-opacity:1"
       transform="matrix(1.3333333,0,0,-1.3333333,235.05333,274.132)" />
    <path
       id="path66"
       d="m 3.4448281,-7.6651484 c 0,-0.2695313 0,-0.28125 -0.2460937,-0.28125 -0.28125,0.3164062 -0.8789063,0.7617187 -2.109375,0.7617187 v 0.3515625 c 0.2695312,0 0.8671875,0 1.5234375,-0.3164062 v 6.22265621 c 0,0.43359375 -0.035156,0.57421875 -1.078125,0.57421875 h -0.375 v 0.3515625 c 0.3164062,-0.0234375 1.4765625,-0.0234375 1.875,-0.0234375 0.3984375,0 1.546875,0 1.8632812,0.0234375 v -0.3515625 H 4.5346719 c -1.0546875,0 -1.0898438,-0.140625 -1.0898438,-0.57421875 z m 0,0"
       style="fill:#000000;fill-opacity:1;fill-rule:nonzero;stroke:none"
       aria-label="1"
       transform="matrix(1.3333333,0,0,1.3333333,392.30533,997.95067)" />
  </g>
</svg>
